<svg width="127" height="126" viewBox="0 0 127 126" fill="none" xmlns="http://www.w3.org/2000/svg">
<g clip-path="url(#clip0_380_18)">
<path d="M85.9 10.61L82.57 9.30999L80.85 11.36L79.44 10.81L86 3.29999L87.47 3.86999L87.21 13.87L85.78 13.3L85.9 10.61ZM83.34 8.35L85.98 9.35L86.18 5.00998L83.34 8.35Z" fill="#57656B"/>
<path d="M90.24 15.6L92.09 5.82999L93.45 6.62999L91.75 14.63L97.86 9.24999L99.2 10.04L91.58 16.43L90.24 15.6Z" fill="#57656B"/>
<path d="M100.85 20L98.09 17.73L95.82 19.14L94.65 18.14L103.21 13.05L104.43 14.05L101.1 23.44L99.91 22.44L100.85 20ZM99.12 17.06L101.31 18.86L102.84 14.79L99.12 17.06Z" fill="#57656B"/>
<path d="M102.28 24.88L109.06 18.42L110.06 19.48L103.28 25.93L102.28 24.88Z" fill="#57656B"/>
<path d="M108.54 32.46L105 27.83L112.47 22.17L113.34 23.33L106.88 28.22L109.52 31.7L108.54 32.46Z" fill="#57656B"/>
<path d="M114.33 37.52L112.65 34.38L110.01 34.81L109.3 33.48L119.15 32.06L119.89 33.44L113.22 40.83L112.5 39.47L114.33 37.52ZM113.85 34.15L115.18 36.65L118.18 33.49L113.85 34.15Z" fill="#57656B"/>
<path d="M113.85 42.47L122.74 39.54L123.94 43.19C124.46 44.76 123.94 46.08 122.58 46.52C122.126 46.6706 121.634 46.6592 121.187 46.4878C120.74 46.3165 120.367 45.9956 120.13 45.58C120.28 46.1433 120.207 46.7429 119.926 47.2535C119.644 47.7641 119.177 48.1462 118.62 48.32C117.05 48.83 115.73 48 115.1 46.11L113.85 42.47ZM119.41 42.17L119.95 43.8C120.35 45 121.06 45.5 121.95 45.21C122.84 44.92 123.05 44.21 122.71 43.21L122.08 41.28L119.41 42.17ZM116.09 45.48C116.5 46.72 117.23 47.21 118.19 46.9C119.15 46.59 119.42 45.73 118.99 44.43L118.36 42.52L115.43 43.52L116.09 45.48Z" fill="#57656B"/>
<path d="M117.37 56.85L116.44 51.11L125.69 49.61L125.92 51.05L117.92 52.34L118.62 56.65L117.37 56.85Z" fill="#57656B"/>
<path d="M117.62 64.81L117.52 58.86L126.9 58.71L127 64.71L125.75 64.71L125.67 60.21L122.93 60.26L123 64.52L121.79 64.52L121.72 60.26L118.81 60.31L118.88 64.8L117.62 64.81Z" fill="#57656B"/>
<path d="M117 71L126.16 72.94L124.95 78.66L123.73 78.4L124.64 74.1L121.74 73.49L120.9 77.43L119.7 77.17L120.54 73.24L116.7 72.43L117 71Z" fill="#57656B"/>
<path d="M116.48 88.18C113.71 87.07 112.62 84.81 113.62 82.31C114.62 79.81 116.97 78.93 119.74 80.03C122.51 81.13 123.61 83.4 122.6 85.91C121.59 88.42 119.25 89.29 116.48 88.18ZM119.19 81.41C117.19 80.6 115.47 81.13 114.81 82.79C114.15 84.45 115.01 85.98 117.03 86.79C119.05 87.6 120.76 87.08 121.42 85.43C122.08 83.78 121.22 82.22 119.19 81.41Z" fill="#57656B"/>
<path d="M110.35 89.47L111.12 88.24L119.07 93.24L117.07 96.36C116.07 98 114.46 98.43 112.98 97.5C112.463 97.2135 112.055 96.7638 111.819 96.2212C111.584 95.6786 111.535 95.0734 111.68 94.5L107.31 94.25L108.2 92.82L112.27 93.11L113.36 91.37L110.35 89.47ZM114.4 92L113.29 93.77C113.141 93.9515 113.035 94.1638 112.979 94.3915C112.923 94.6192 112.918 94.8566 112.965 95.0864C113.012 95.3162 113.109 95.5326 113.25 95.7201C113.391 95.9075 113.572 96.0612 113.78 96.17C113.973 96.3044 114.194 96.395 114.426 96.4355C114.658 96.476 114.896 96.4655 115.123 96.4045C115.351 96.3436 115.562 96.2338 115.743 96.0828C115.924 95.9317 116.07 95.7431 116.17 95.53L117.26 93.79L114.4 92Z" fill="#57656B"/>
<path d="M99.15 103.06L102.02 106.06L105.5 102.74L102.64 99.74L103.69 98.74L110.16 105.52L109.16 106.52L106.42 103.66L102.94 106.98L105.68 109.85L104.68 110.85L98.2 104.07L99.15 103.06Z" fill="#57656B"/>
<path d="M96 105.51L101.52 113.09L100.35 113.94L94.82 106.37L96 105.51Z" fill="#57656B"/>
<path d="M91.56 108.56L92.83 107.85L97.41 116.02L94.2 117.82C92.52 118.76 90.92 118.38 90.07 116.82C89.7607 116.324 89.6207 115.741 89.6712 115.158C89.7217 114.576 89.9599 114.025 90.35 113.59L86.64 111.28L88.11 110.46L91.53 112.67L93.32 111.67L91.56 108.56ZM93.9 112.73L92.07 113.73C91.8529 113.818 91.6581 113.954 91.4998 114.126C91.3415 114.299 91.2236 114.505 91.1546 114.729C91.0857 114.953 91.0675 115.19 91.1013 115.422C91.1351 115.653 91.22 115.875 91.35 116.07C91.4545 116.281 91.604 116.466 91.7879 116.613C91.9718 116.76 92.1857 116.865 92.4146 116.92C92.6434 116.976 92.8816 116.98 93.1123 116.933C93.343 116.887 93.5607 116.79 93.75 116.65L95.54 115.65L93.9 112.73Z" fill="#57656B"/>
<path d="M79.34 114.05L84.93 112.05L88.14 120.86L82.55 122.86L82.12 121.68L86.34 120.14L85.4 117.56L81.4 119.02L80.98 117.89L84.98 116.43L83.98 113.69L79.76 115.24L79.34 114.05Z" fill="#57656B"/>
<path d="M63.65 117.16C64.4571 116.444 65.4914 116.037 66.57 116.01C68.47 115.95 69.79 117.01 69.85 118.54C69.8528 119.096 69.6923 119.641 69.3883 120.107C69.0843 120.572 68.6503 120.939 68.14 121.16L67.77 121.37C68.1083 121.621 68.3919 121.939 68.6034 122.303C68.8149 122.668 68.9498 123.072 69 123.49C68.9953 123.794 68.9287 124.094 68.8045 124.371C68.6803 124.648 68.5009 124.897 68.2773 125.103C68.0537 125.309 67.7906 125.467 67.504 125.568C67.2174 125.669 66.9132 125.71 66.61 125.69C66.3118 125.733 66.0079 125.715 65.717 125.637C65.4261 125.558 65.1542 125.421 64.9182 125.234C64.6822 125.047 64.487 124.813 64.3445 124.548C64.2021 124.282 64.1155 123.99 64.09 123.69C64.09 122.69 64.61 121.99 65.97 121.21L63.76 119C63.4725 119.706 63.3627 120.472 63.44 121.23L63.44 121.59L62.18 121.64L62.18 121.24C62.0817 120.15 62.3153 119.055 62.85 118.1L61.1 116.39L62.81 116.33L63.65 117.16ZM68.48 118.69C68.48 117.69 67.64 117.1 66.48 117.14C65.7262 117.153 65.0078 117.462 64.48 118L67.03 120.59L67.32 120.43C68.17 119.86 68.5 119.36 68.48 118.69ZM65.35 123.55C65.3506 123.705 65.3836 123.857 65.4467 123.999C65.5099 124.14 65.6018 124.266 65.7167 124.37C65.8315 124.473 65.9668 124.552 66.1137 124.6C66.2607 124.648 66.4161 124.665 66.57 124.65C66.7244 124.652 66.8775 124.622 67.0199 124.562C67.1622 124.502 67.2907 124.413 67.3976 124.302C67.5044 124.19 67.5873 124.058 67.641 123.913C67.6947 123.768 67.7182 123.614 67.71 123.46C67.71 122.97 67.43 122.56 66.71 121.9C65.7 122.46 65.33 122.92 65.35 123.55Z" fill="#57656B"/>
<path d="M51.8 115L49.26 124L43.63 122.42L43.97 121.21L48.2 122.4L49 119.54L45.12 118.45L45.46 117.27L49.34 118.36L50.4 114.58L51.8 115Z" fill="#57656B"/>
<path d="M43 112.09L44.32 112.7L40.4 121.22L37 119.68C36.6155 119.558 36.262 119.354 35.9639 119.082C35.6659 118.81 35.4303 118.477 35.2735 118.105C35.1166 117.734 35.0422 117.333 35.0555 116.929C35.0687 116.526 35.1692 116.131 35.35 115.77C35.5682 115.229 35.9563 114.773 36.456 114.472C36.9556 114.171 37.5396 114.04 38.12 114.1L37.81 109.73L39.34 110.44L39.57 114.51L41.43 115.37L43 112.09ZM41 116.44L39.1 115.57C38.9011 115.445 38.6769 115.367 38.4438 115.34C38.2106 115.313 37.9744 115.338 37.7522 115.413C37.53 115.489 37.3275 115.613 37.1593 115.777C36.9911 115.941 36.8616 116.14 36.78 116.36C36.6713 116.57 36.6098 116.801 36.5998 117.037C36.5898 117.273 36.6315 117.508 36.722 117.726C36.8125 117.944 36.9496 118.14 37.1237 118.3C37.2979 118.459 37.5048 118.579 37.73 118.65L39.59 119.5L41 116.44Z" fill="#57656B"/>
<path d="M31.31 105.45L36.26 108.76L31.04 116.55L26.04 113.24L26.74 112.24L30.47 114.74L32 112.42L28.46 110.05L29.14 109.05L32.67 111.42L34.34 109L30.61 106.49L31.31 105.45Z" fill="#57656B"/>
<path d="M25.19 100.05L29.58 104.05L23.26 110.97L18.87 106.97L19.72 106.04L23.03 109.04L24.88 107.04L21.74 104.17L22.56 103.28L25.7 106.15L27.7 104L24.38 101L25.19 100.05Z" fill="#57656B"/>
<path d="M20 93.89L23.66 98.4L16.4 104.3L15.48 103.17L21.77 98.06L19 94.68L20 93.89Z" fill="#57656B"/>
<path d="M14.06 89L15.84 92.1L18.46 91.58L19.22 92.89L9.41 94.62L8.62 93.26L15.06 85.66L15.83 86.99L14.06 89ZM14.64 92.36L13.23 89.9L10.36 93.16L14.64 92.36Z" fill="#57656B"/>
<path d="M14.37 84.07L5.54 87.19L5.09999 85.95L10 79.07L10 79.02L3.48999 81.33L3 80L11.83 76.87L12.27 78.11L7.37999 84.99L7.37999 85.05L13.89 82.74L14.37 84.07Z" fill="#57656B"/>
<path d="M6.63999 75.59C3.69999 76.05 1.59 74.68 1.19 72.09C0.980999 71.1569 1.134 70.1792 1.619 69.3549C2.103 68.5305 2.883 67.9211 3.8 67.65L4.01999 69.08C3.46699 69.2851 3.005 69.6807 2.717 70.1957C2.429 70.7107 2.33499 71.3114 2.44999 71.89C2.70999 73.58 4.25999 74.45 6.44999 74.12C8.63999 73.79 9.81 72.48 9.55 70.78C9.506 70.2127 9.26299 69.6792 8.86399 69.2732C8.46499 68.8672 7.936 68.6147 7.37 68.56L7.15 67.13C8.084 67.1381 8.981 67.4994 9.66 68.1411C10.338 68.7829 10.749 69.6577 10.81 70.59C11.17 73.19 9.58999 75.12 6.63999 75.59Z" fill="#57656B"/>
<path d="M10 58.73L9.91 64.68L0.529995 64.53L0.629993 58.53L1.87999 58.53L1.80999 63.03L4.55 63.08L4.62 58.82L5.83 58.82L5.76 63.08L8.66999 63.08L8.73999 58.58L10 58.73Z" fill="#57656B"/>
<path d="M2.59999 46.75C2.69999 46.356 2.876 45.9856 3.119 45.6598C3.362 45.334 3.667 45.0593 4.016 44.8513C4.36499 44.6433 4.752 44.5061 5.154 44.4475C5.556 44.389 5.966 44.4102 6.36 44.51C6.754 44.6098 7.12399 44.7862 7.44999 45.0292C7.77599 45.2722 8.051 45.5769 8.259 45.9261C8.467 46.2752 8.604 46.6619 8.662 47.0641C8.721 47.4663 8.69999 47.876 8.59999 48.27L8.08 50.38L11.19 51.15L10.84 52.56L1.75 50.31L2.59999 46.75ZM6.87 50.09L7.30999 48.31C7.37699 48.07 7.39599 47.8189 7.36399 47.5717C7.33299 47.3244 7.252 47.086 7.126 46.8706C7.001 46.6552 6.833 46.4673 6.634 46.318C6.434 46.1686 6.20699 46.0609 5.96399 46.0012C5.72199 45.9415 5.47099 45.9311 5.22499 45.9706C4.97899 46.0101 4.74299 46.0986 4.53199 46.231C4.32099 46.3633 4.138 46.5368 3.995 46.741C3.852 46.9453 3.75199 47.1762 3.69999 47.42L3.26 49.19L6.87 50.09Z" fill="#57656B"/>
<path d="M13.67 42.8L13.1 44.14L4.49 40.42L5.95 37C6.064 36.6137 6.261 36.2568 6.526 35.9537C6.791 35.6506 7.119 35.4086 7.487 35.2442C7.855 35.0798 8.253 34.997 8.656 35.0015C9.059 35.0059 9.456 35.0975 9.82 35.27C10.368 35.4731 10.835 35.8497 11.149 36.3426C11.463 36.8354 11.607 37.4175 11.56 38L15.91 37.59L15.25 39.13L11.18 39.46L10.36 41.34L13.67 42.8ZM9.28 40.9L10.11 38.98C10.23 38.7785 10.303 38.5529 10.325 38.3195C10.347 38.0861 10.316 37.8508 10.236 37.6306C10.156 37.4104 10.027 37.2109 9.86 37.0465C9.693 36.882 9.491 36.7569 9.27 36.68C9.058 36.5775 8.826 36.5222 8.59 36.5181C8.354 36.514 8.12 36.5612 7.904 36.6562C7.688 36.7513 7.496 36.8921 7.34 37.0688C7.184 37.2456 7.068 37.4541 7 37.68L6.19 39.57L9.28 40.9Z" fill="#57656B"/>
<path d="M17.55 26.4C20.03 28.05 20.63 30.49 19.14 32.74C17.65 34.99 15.14 35.36 12.68 33.74C10.22 32.12 9.58 29.65 11.08 27.41C12.58 25.17 15.07 24.75 17.55 26.4ZM13.5 32.47C15.32 33.68 17.08 33.47 18.07 32.03C19.06 30.59 18.53 28.85 16.72 27.64C14.91 26.43 13.13 26.64 12.15 28.08C11.17 29.52 11.68 31.25 13.5 32.47Z" fill="#57656B"/>
<path d="M21.67 25.21C21.799 25.3351 21.953 25.432 22.121 25.4947C22.29 25.5573 22.47 25.5843 22.649 25.574C22.829 25.5637 23.004 25.5162 23.164 25.4346C23.324 25.353 23.466 25.2391 23.58 25.1C23.737 24.9558 23.858 24.7779 23.936 24.5797C24.013 24.3814 24.044 24.1682 24.027 23.9561C24.009 23.744 23.944 23.5386 23.835 23.3556C23.727 23.1726 23.578 23.0168 23.4 22.9L18.56 18.34L19.56 17.28L24.4 21.84C24.713 22.082 24.969 22.39 25.149 22.7421C25.329 23.0942 25.43 23.4818 25.443 23.8771C25.456 24.2725 25.382 24.6659 25.226 25.0294C25.07 25.3928 24.836 25.7174 24.54 25.98C24.317 26.2684 24.036 26.5066 23.716 26.679C23.395 26.8514 23.041 26.9542 22.678 26.9806C22.314 27.007 21.949 26.9565 21.607 26.8324C21.264 26.7082 20.952 26.5132 20.69 26.26L21.67 25.21Z" fill="#57656B"/>
<path d="M32.88 18.32L28.21 22.01L22.4 14.66L27.07 11L27.84 12L24.32 14.79L26.02 16.94L29.36 14.3L30.11 15.25L26.77 17.89L28.57 20.17L32.1 17.38L32.88 18.32Z" fill="#57656B"/>
<path d="M32.12 13.12C30.69 10.52 31.26 8.06997 33.55 6.80997C34.3503 6.31402 35.3072 6.13547 36.2325 6.30942C37.1578 6.48338 37.9845 6.99725 38.55 7.74997L37.29 8.44997C36.9077 8.0006 36.3788 7.70091 35.7969 7.60392C35.2149 7.50692 34.6174 7.61888 34.11 7.91997C32.62 8.73997 32.33 10.5 33.37 12.4C34.41 14.3 36.05 15 37.56 14.18C38.0775 13.946 38.4957 13.5367 38.7408 13.0245C38.986 12.5122 39.0424 11.9298 38.9 11.38L40.17 10.69C40.4801 11.5675 40.4462 12.53 40.0751 13.3835C39.704 14.2371 39.0233 14.9183 38.17 15.29C35.91 16.56 33.56 15.73 32.12 13.12Z" fill="#57656B"/>
<path d="M45.4 11.89L42.73 4.21998L39.97 5.21998L39.56 4.03997L46.45 1.63998L46.86 2.81999L44.11 3.81999L46.78 11.49L45.4 11.89Z" fill="#57656B"/>
<path d="M51.94 7.26C52.2 8.16 53.2 8.60001 54.41 8.39001C55.62 8.18001 56.31 7.44 56.17 6.62C56.03 5.8 55.46 5.56 54.17 5.48L53 5.4C51.23 5.28 50.31 4.63 50.08 3.34C49.81 1.75 51 0.410014 52.97 0.0700144C54.94 -0.269986 56.45 0.59 56.77 2.18L55.38 2.42001C55.3096 2.19903 55.1963 1.99415 55.0464 1.81713C54.8966 1.64011 54.7133 1.49445 54.507 1.38851C54.3007 1.28257 54.0755 1.21844 53.8443 1.19982C53.6132 1.1812 53.3806 1.20845 53.16 1.28001C52.05 1.48001 51.39 2.17001 51.53 2.99001C51.65 3.64001 52.2 3.94001 53.44 3.99001L54.5 4.06C56.5 4.18 57.39 4.8 57.62 6.15C57.92 7.88 56.74 9.20001 54.55 9.58001C52.36 9.96001 50.94 9.12001 50.55 7.47001L51.94 7.26Z" fill="#57656B"/>
<path d="M68.59 4.86999C68.6064 4.70301 68.672 4.54464 68.7783 4.41482C68.8846 4.28501 69.027 4.18956 69.1874 4.14052C69.3479 4.09147 69.5193 4.09101 69.68 4.1392C69.8407 4.18739 69.9836 4.28207 70.0906 4.41131C70.1976 4.54056 70.264 4.69858 70.2813 4.86548C70.2987 5.03237 70.2663 5.20067 70.1881 5.34917C70.11 5.49766 69.9897 5.61971 69.8423 5.69993C69.6949 5.78016 69.5271 5.81498 69.36 5.8C69.2482 5.78998 69.1395 5.75791 69.0401 5.70564C68.9408 5.65337 68.8528 5.58193 68.7812 5.49547C68.7096 5.409 68.6558 5.30921 68.623 5.20186C68.5902 5.0945 68.579 4.98171 68.59 4.86999Z" fill="#57656B"/>
</g>
<defs>
<clipPath id="clip0_380_18">
<rect width="126" height="127" fill="white" transform="translate(127) rotate(90)"/>
</clipPath>
</defs>
</svg>
