<svg width="100" height="25" viewBox="0 0 100 25" fill="none" xmlns="http://www.w3.org/2000/svg">
<path d="M97 21H0V24.7129H97V21Z" fill="#39474E"/>
<path d="M19.4011 16.0001V7.65113C19.4011 5.35113 18.2051 3.30413 15.2841 3.30413C14.0421 3.30413 12.4091 3.71813 11.2361 5.21313C10.7071 4.08613 9.67209 3.30413 7.90109 3.30413C6.63609 3.30413 5.44009 3.78713 4.49709 4.70713V3.55713H0.288086V16.0001H4.49709V8.84713C4.49709 7.55913 5.21009 6.98413 6.17609 6.98413C7.48709 6.98413 7.74009 7.76613 7.74009 8.61713V16.0001H11.9491V8.84713C11.9491 7.55913 12.6621 6.98413 13.6281 6.98413C14.9391 6.98413 15.1921 7.76613 15.1921 8.61713V16.0001H19.4011Z" fill="#39474E"/>
<path d="M30.7735 14.6201C31.5095 15.9081 32.7745 16.1841 33.9935 16.1841C34.6145 16.1841 35.5805 16.0461 36.1095 15.7011L35.6955 13.1481C35.5575 13.2631 35.3735 13.3091 35.0975 13.3091C34.8215 13.3091 34.6145 13.1941 34.6145 12.8031V3.55713H30.4055V4.70713C29.4625 3.81013 28.2895 3.30413 26.8635 3.30413C23.3905 3.30413 21.2285 6.06413 21.2285 9.79013C21.2285 13.4471 23.3215 16.2761 26.9325 16.2761C28.5885 16.2761 29.8765 15.7931 30.7735 14.6201ZM30.4055 9.81313C30.4055 11.4001 29.6235 12.6881 27.9905 12.6881C26.4035 12.6881 25.6675 11.3771 25.6675 9.81313C25.6675 8.24913 26.4035 6.86913 27.9905 6.86913C29.6005 6.86913 30.4055 8.22613 30.4055 9.81313Z" fill="#39474E"/>
<path d="M45.4125 12.0671C44.9985 12.4121 44.5155 12.6421 43.9175 12.6421C43.3885 12.6421 42.9055 12.4581 42.9055 11.7221V6.68513H46.2405V3.55713H42.9055V0.682129H38.6965V3.55713H36.8105V6.68513H38.6965V11.6991C38.6965 12.9871 38.9035 13.9071 39.4785 14.7121C40.2375 15.7701 41.5025 16.2761 43.1585 16.2761C44.7915 16.2761 46.0105 15.7701 46.9305 15.0571L45.4125 12.0671Z" fill="#39474E"/>
<path d="M67.445 16.0001V7.65113C67.445 5.35113 66.249 3.30413 63.328 3.30413C62.086 3.30413 60.453 3.71813 59.28 5.21313C58.751 4.08613 57.716 3.30413 55.945 3.30413C54.68 3.30413 53.484 3.78713 52.541 4.70713V3.55713H48.332V16.0001H52.541V8.84713C52.541 7.55913 53.254 6.98413 54.22 6.98413C55.531 6.98413 55.784 7.76613 55.784 8.61713V16.0001H59.993V8.84713C59.993 7.55913 60.706 6.98413 61.672 6.98413C62.983 6.98413 63.236 7.76613 63.236 8.61713V16.0001H67.445Z" fill="#39474E"/>
<path d="M78.8175 14.6201C79.5535 15.9081 80.8185 16.1841 82.0375 16.1841C82.6585 16.1841 83.6245 16.0461 84.1535 15.7011L83.7395 13.1481C83.6015 13.2631 83.4175 13.3091 83.1415 13.3091C82.8655 13.3091 82.6585 13.1941 82.6585 12.8031V3.55713H78.4495V4.70713C77.5065 3.81013 76.3335 3.30413 74.9075 3.30413C71.4345 3.30413 69.2725 6.06413 69.2725 9.79013C69.2725 13.4471 71.3655 16.2761 74.9765 16.2761C76.6325 16.2761 77.9204 15.7931 78.8175 14.6201ZM78.4495 9.81313C78.4495 11.4001 77.6675 12.6881 76.0345 12.6881C74.4475 12.6881 73.7115 11.3771 73.7115 9.81313C73.7115 8.24913 74.4475 6.86913 76.0345 6.86913C77.6445 6.86913 78.4495 8.22613 78.4495 9.81313Z" fill="#39474E"/>
<path d="M94.5604 11.0781C93.9624 12.0671 93.0884 12.7571 91.9384 12.7571C90.4204 12.7571 89.5004 11.5611 89.5004 9.76713C89.5004 8.06513 90.3514 6.82313 91.8464 6.82313C92.9274 6.82313 93.7554 7.49013 94.2844 8.57113L97.3664 6.70813C96.3314 4.77613 94.5144 3.30413 91.6164 3.30413C87.6144 3.30413 85.0614 6.08713 85.0614 9.81313C85.0614 13.5161 87.5914 16.2761 91.6624 16.2761C94.5374 16.2761 96.3774 14.8961 97.4124 13.1021L94.5604 11.0781Z" fill="#39474E"/>
<circle cx="98.5" cy="1.5" r="1.5" fill="#39474E"/>
</svg>
