<svg width="101" height="17" viewBox="0 0 101 17" fill="none" xmlns="http://www.w3.org/2000/svg">
<path d="M19.4562 16.0462V7.67312C19.4562 5.36648 18.2568 3.31356 15.3273 3.31356C14.0818 3.31356 12.444 3.72876 11.2676 5.22808C10.7371 4.09782 9.69913 3.31356 7.92302 3.31356C6.65436 3.31356 5.45491 3.79796 4.50918 4.72062V3.5673H0.288025V16.0462H4.50918V8.87258C4.50918 7.58086 5.22424 7.00419 6.19303 7.00419C7.50782 7.00419 7.76155 7.78845 7.76155 8.64191V16.0462H11.9827V8.87258C11.9827 7.58086 12.6978 7.00419 13.6666 7.00419C14.9813 7.00419 15.2351 7.78845 15.2351 8.64191V16.0462H19.4562Z" fill="white"/>
<path d="M30.8615 14.6623C31.5996 15.954 32.8683 16.2308 34.0908 16.2308C34.7136 16.2308 35.6824 16.0924 36.2129 15.7464L35.7977 13.186C35.6593 13.3013 35.4748 13.3475 35.198 13.3475C34.9212 13.3475 34.7136 13.2321 34.7136 12.84V3.5673H30.4924V4.72062C29.5467 3.82103 28.3703 3.31356 26.9402 3.31356C23.4572 3.31356 21.2889 6.08154 21.2889 9.8183C21.2889 13.4859 23.388 16.323 27.0094 16.323C28.6702 16.323 29.9619 15.8386 30.8615 14.6623ZM30.4924 9.84137C30.4924 11.433 29.7082 12.7247 28.0705 12.7247C26.4789 12.7247 25.7408 11.4099 25.7408 9.84137C25.7408 8.27285 26.4789 6.88886 28.0705 6.88886C29.6851 6.88886 30.4924 8.24978 30.4924 9.84137Z" fill="white"/>
<path d="M45.5428 12.1019C45.1276 12.4479 44.6432 12.6785 44.0434 12.6785C43.5129 12.6785 43.0285 12.494 43.0285 11.7559V6.70433H46.3731V3.5673H43.0285V0.68399H38.8074V3.5673H36.9159V6.70433H38.8074V11.7328C38.8074 13.0245 39.015 13.9472 39.5916 14.7545C40.3528 15.8156 41.6215 16.323 43.2822 16.323C44.92 16.323 46.1425 15.8156 47.0651 15.1005L45.5428 12.1019Z" fill="white"/>
<path d="M67.639 16.0462V7.67312C67.639 5.36648 66.4395 3.31356 63.5101 3.31356C62.2645 3.31356 60.6268 3.72876 59.4504 5.22808C58.9198 4.09782 57.8819 3.31356 56.1057 3.31356C54.8371 3.31356 53.6376 3.79796 52.6919 4.72062V3.5673H48.4707V16.0462H52.6919V8.87258C52.6919 7.58086 53.407 7.00419 54.3758 7.00419C55.6905 7.00419 55.9443 7.78845 55.9443 8.64191V16.0462H60.1654V8.87258C60.1654 7.58086 60.8805 7.00419 61.8493 7.00419C63.1641 7.00419 63.4178 7.78845 63.4178 8.64191V16.0462H67.639Z" fill="white"/>
<path d="M79.0442 14.6623C79.7824 15.954 81.051 16.2308 82.2735 16.2308C82.8963 16.2308 83.8651 16.0924 84.3956 15.7464L83.9804 13.186C83.8421 13.3013 83.6575 13.3475 83.3807 13.3475C83.1039 13.3475 82.8963 13.2321 82.8963 12.84V3.5673H78.6752V4.72062C77.7294 3.82103 76.5531 3.31356 75.1229 3.31356C71.6399 3.31356 69.4717 6.08154 69.4717 9.8183C69.4717 13.4859 71.5707 16.323 75.1921 16.323C76.8529 16.323 78.1446 15.8386 79.0442 14.6623ZM78.6752 9.84137C78.6752 11.433 77.8909 12.7247 76.2532 12.7247C74.6616 12.7247 73.9235 11.4099 73.9235 9.84137C73.9235 8.27285 74.6616 6.88886 76.2532 6.88886C77.8678 6.88886 78.6752 8.24978 78.6752 9.84137Z" fill="white"/>
<path d="M94.8327 11.11C94.2329 12.1019 93.3564 12.7939 92.2031 12.7939C90.6807 12.7939 89.758 11.5944 89.758 9.79523C89.758 8.08832 90.6115 6.84273 92.1108 6.84273C93.1949 6.84273 94.0253 7.51166 94.5559 8.59578L97.6468 6.7274C96.6088 4.78982 94.7865 3.31356 91.8802 3.31356C87.8666 3.31356 85.3062 6.1046 85.3062 9.84137C85.3062 13.5551 87.8435 16.323 91.9263 16.323C94.8096 16.323 96.6549 14.939 97.6929 13.1399L94.8327 11.11Z" fill="white"/>
<circle cx="98.7837" cy="1.50433" r="1.50433" fill="white"/>
</svg>
