<svg width="137" height="26" viewBox="0 0 137 26" fill="none" xmlns="http://www.w3.org/2000/svg">
<circle cx="124.236" cy="6.21243" r="6.21244" fill="#FF6B00"/>
<circle cx="130.324" cy="12.3006" r="6.21244" fill="#39C2ED"/>
<path d="M124.111 7.77511C124.111 6.84344 124.867 6.08817 125.798 6.08817H130.448V10.7379C130.448 11.6696 129.693 12.4249 128.761 12.4249H124.111V7.77511Z" fill="#003FB9"/>
<path d="M4.89614 12.9191V15.8191H6.84917V18.1469H4.89614V22.2108C4.89614 22.6185 4.9882 22.9078 5.17233 23.0788C5.35645 23.2498 5.64579 23.3353 6.04034 23.3353C6.39544 23.3353 6.66505 23.309 6.84917 23.2564V25.4264C6.46777 25.5842 5.97458 25.6631 5.3696 25.6631C4.42268 25.6631 3.67303 25.4001 3.12066 24.874C2.56829 24.3348 2.2921 23.5983 2.2921 22.6645V18.1469H0.536346V15.8191H1.02954C1.51615 15.8191 1.8844 15.681 2.13428 15.4048C2.39731 15.1154 2.52883 14.7406 2.52883 14.2803V12.9191H4.89614Z" fill="#44515D"/>
<path d="M14.8613 15.7796V18.4231C14.5983 18.3705 14.3353 18.3442 14.0722 18.3442C13.3226 18.3442 12.7176 18.5612 12.2573 18.9952C11.797 19.416 11.5668 20.1131 11.5668 21.0863V25.525H8.94307V15.8191H11.4879V17.2592C11.9614 16.2465 12.882 15.7401 14.2498 15.7401C14.3945 15.7401 14.5983 15.7533 14.8613 15.7796Z" fill="#44515D"/>
<path d="M16.1729 22.8815C16.1729 22.053 16.4425 21.3888 16.9817 20.889C17.521 20.3893 18.218 20.0736 19.0729 19.9421L21.4599 19.587C21.9465 19.5213 22.1898 19.2911 22.1898 18.8966C22.1898 18.5283 22.0452 18.2258 21.7558 17.9891C21.4796 17.7524 21.0785 17.634 20.5524 17.634C20.0001 17.634 19.5595 17.7852 19.2307 18.0877C18.9151 18.3902 18.7375 18.765 18.698 19.2122L16.3702 18.719C16.4623 17.8773 16.8765 17.1342 17.613 16.4898C18.3495 15.8454 19.3228 15.5231 20.5327 15.5231C21.9794 15.5231 23.0447 15.8717 23.7286 16.5687C24.4125 17.2526 24.7544 18.1338 24.7544 19.2122V23.9863C24.7544 24.5649 24.7939 25.0779 24.8728 25.525H22.466C22.4003 25.2357 22.3674 24.8477 22.3674 24.3611C21.7492 25.3212 20.7957 25.8012 19.5069 25.8012C18.5073 25.8012 17.6985 25.5119 17.0804 24.9332C16.4754 24.3545 16.1729 23.6706 16.1729 22.8815ZM20.0593 23.8482C20.6774 23.8482 21.1837 23.6772 21.5783 23.3353C21.986 22.9802 22.1898 22.4015 22.1898 21.5992V21.1652L20.0001 21.5006C19.1978 21.619 18.7967 22.0267 18.7967 22.7237C18.7967 23.0393 18.9085 23.309 19.1321 23.5325C19.3556 23.743 19.6647 23.8482 20.0593 23.8482Z" fill="#44515D"/>
<path d="M36.6128 11.2423V23.7693C36.6128 24.4137 36.6392 24.999 36.6918 25.525H34.1864C34.1206 25.1962 34.0877 24.8214 34.0877 24.4006C33.8641 24.8083 33.509 25.137 33.0224 25.3869C32.549 25.6368 31.9966 25.7618 31.3653 25.7618C29.9844 25.7618 28.8468 25.2817 27.9524 24.3216C27.0713 23.3484 26.6307 22.1253 26.6307 20.6523C26.6307 19.2188 27.0647 18.0154 27.9327 17.0422C28.8139 16.0689 29.9318 15.5823 31.2864 15.5823C32.6805 15.5823 33.5945 15.9835 34.0285 16.7857V11.2423H36.6128ZM29.2742 20.6523C29.2742 21.5072 29.4978 22.1845 29.9449 22.6843C30.3921 23.1709 30.9708 23.4142 31.681 23.4142C32.378 23.4142 32.9501 23.1643 33.3973 22.6645C33.8444 22.1648 34.068 21.4874 34.068 20.6326C34.068 19.7909 33.8444 19.1333 33.3973 18.6598C32.9501 18.1732 32.378 17.9299 31.681 17.9299C30.9839 17.9299 30.4052 18.1732 29.9449 18.6598C29.4978 19.1464 29.2742 19.8106 29.2742 20.6523Z" fill="#44515D"/>
<path d="M41.3727 19.5673H45.7128C45.6865 19.0281 45.4892 18.5743 45.121 18.2061C44.7659 17.8378 44.2398 17.6537 43.5428 17.6537C42.9115 17.6537 42.3986 17.851 42.004 18.2455C41.6095 18.6401 41.399 19.0807 41.3727 19.5673ZM45.9693 22.0924L48.159 22.7434C47.896 23.6378 47.3765 24.3742 46.6006 24.9529C45.8378 25.5316 44.8843 25.8209 43.7401 25.8209C42.346 25.8209 41.1623 25.3541 40.1891 24.4203C39.2159 23.4734 38.7292 22.2108 38.7292 20.6326C38.7292 19.1333 39.2027 17.9102 40.1496 16.9633C41.0966 16.0032 42.2145 15.5231 43.5033 15.5231C45.0026 15.5231 46.1731 15.9703 47.0148 16.8646C47.8697 17.7589 48.2971 18.9886 48.2971 20.5537C48.2971 20.6589 48.2906 20.7773 48.2774 20.9088C48.2774 21.0403 48.2774 21.1455 48.2774 21.2244L48.2577 21.3625H41.3136C41.3399 21.9938 41.5897 22.5199 42.0632 22.9407C42.5367 23.3616 43.1022 23.572 43.7598 23.572C44.8777 23.572 45.6142 23.0788 45.9693 22.0924Z" fill="#44515D"/>
<path d="M52.987 19.9421V25.525H50.3633V15.8191H52.9081V17.0224C53.1843 16.549 53.5789 16.1873 54.0918 15.9374C54.6047 15.6875 55.1439 15.5626 55.7094 15.5626C56.8536 15.5626 57.7217 15.9243 58.3135 16.6476C58.9185 17.3578 59.221 18.2784 59.221 19.4095V25.525H56.5972V19.8632C56.5972 19.2845 56.4459 18.8176 56.1435 18.4625C55.8541 18.1075 55.407 17.9299 54.802 17.9299C54.2496 17.9299 53.809 18.1206 53.4802 18.502C53.1514 18.8834 52.987 19.3634 52.987 19.9421Z" fill="#44515D"/>
<path d="M64.4879 22.704C64.9745 23.1906 65.5598 23.4339 66.2437 23.4339C66.9276 23.4339 67.5062 23.1906 67.9797 22.704C68.4663 22.2174 68.7096 21.5401 68.7096 20.672C68.7096 19.804 68.4663 19.1267 67.9797 18.6401C67.5062 18.1535 66.9276 17.9102 66.2437 17.9102C65.5598 17.9102 64.9745 18.1535 64.4879 18.6401C64.0145 19.1267 63.7777 19.804 63.7777 20.672C63.7777 21.5401 64.0145 22.2174 64.4879 22.704ZM62.5941 16.983C63.5673 16.0098 64.7838 15.5231 66.2437 15.5231C67.7035 15.5231 68.9135 16.0098 69.8735 16.983C70.8468 17.9562 71.3334 19.1859 71.3334 20.672C71.3334 22.1582 70.8468 23.3879 69.8735 24.3611C68.9135 25.3343 67.7035 25.8209 66.2437 25.8209C64.7838 25.8209 63.5673 25.3343 62.5941 24.3611C61.634 23.3879 61.154 22.1582 61.154 20.672C61.154 19.1859 61.634 17.9562 62.5941 16.983Z" fill="#44515D"/>
<path d="M76.0282 25.525H73.4045V11.2423H76.0282V25.525Z" fill="#44515D"/>
<path d="M81.461 25.525H78.8373V15.8191H81.461V25.525ZM78.5216 12.6429C78.5216 12.1958 78.6794 11.8144 78.9951 11.4987C79.3107 11.1699 79.6921 11.0055 80.1393 11.0055C80.5864 11.0055 80.9678 11.1633 81.2835 11.479C81.5991 11.7946 81.7569 12.1826 81.7569 12.6429C81.7569 13.0769 81.5991 13.4517 81.2835 13.7674C80.9678 14.083 80.5864 14.2408 80.1393 14.2408C79.6921 14.2408 79.3107 14.083 78.9951 13.7674C78.6794 13.4517 78.5216 13.0769 78.5216 12.6429Z" fill="#44515D"/>
<path d="M86.8938 25.525H84.2701V15.8191H86.7755V17.0027C87.0253 16.5555 87.4199 16.2005 87.9591 15.9374C88.4983 15.6744 89.0507 15.5429 89.6162 15.5429C91.0235 15.5429 91.9835 16.0821 92.4965 17.1605C93.1935 16.0821 94.2193 15.5429 95.574 15.5429C96.5603 15.5429 97.3889 15.8519 98.0596 16.4701C98.7435 17.0882 99.0855 18.0088 99.0855 19.2319V25.525H96.5406V19.7646C96.5406 19.2122 96.3959 18.7716 96.1066 18.4428C95.8304 18.1009 95.403 17.9299 94.8243 17.9299C94.2851 17.9299 93.8511 18.114 93.5223 18.4823C93.1935 18.8505 93.0291 19.3043 93.0291 19.8435V25.525H90.4251V19.7646C90.4251 19.2122 90.2804 18.7716 89.9911 18.4428C89.7017 18.1009 89.2743 17.9299 88.7088 17.9299C88.1564 17.9299 87.7158 18.114 87.387 18.4823C87.0582 18.8374 86.8938 19.2911 86.8938 19.8435V25.525Z" fill="#44515D"/>
<path d="M104.367 25.525H101.744V15.8191H104.367V25.525ZM101.428 12.6429C101.428 12.1958 101.586 11.8144 101.901 11.4987C102.217 11.1699 102.598 11.0055 103.046 11.0055C103.493 11.0055 103.874 11.1633 104.19 11.479C104.505 11.7946 104.663 12.1826 104.663 12.6429C104.663 13.0769 104.505 13.4517 104.19 13.7674C103.874 14.083 103.493 14.2408 103.046 14.2408C102.598 14.2408 102.217 14.083 101.901 13.7674C101.586 13.4517 101.428 13.0769 101.428 12.6429Z" fill="#44515D"/>
<path d="M110.412 12.9191V15.8191H112.365V18.1469H110.412V22.2108C110.412 22.6185 110.504 22.9078 110.688 23.0788C110.872 23.2498 111.161 23.3353 111.556 23.3353C111.911 23.3353 112.181 23.309 112.365 23.2564V25.4264C111.983 25.5842 111.49 25.6631 110.885 25.6631C109.938 25.6631 109.189 25.4001 108.636 24.874C108.084 24.3348 107.808 23.5983 107.808 22.6645V18.1469H106.052V15.8191H106.545C107.032 15.8191 107.4 15.681 107.65 15.4048C107.913 15.1154 108.044 14.7406 108.044 14.2803V12.9191H110.412Z" fill="#44515D"/>
<path d="M113.977 22.8223L116.226 22.3292C116.252 22.75 116.417 23.1051 116.719 23.3944C117.035 23.6706 117.462 23.8087 118.001 23.8087C118.409 23.8087 118.725 23.7167 118.948 23.5325C119.172 23.3484 119.284 23.1183 119.284 22.8421C119.284 22.3555 118.935 22.0398 118.238 21.8951L116.956 21.5992C116.048 21.402 115.364 21.0469 114.904 20.5339C114.457 20.021 114.233 19.4095 114.233 18.6993C114.233 17.8181 114.575 17.0685 115.259 16.4503C115.956 15.8322 116.824 15.5231 117.863 15.5231C118.521 15.5231 119.099 15.6218 119.599 15.8191C120.099 16.0032 120.487 16.2465 120.763 16.549C121.039 16.8383 121.25 17.1342 121.394 17.4367C121.539 17.7392 121.631 18.0351 121.671 18.3245L119.481 18.8176C119.428 18.4757 119.27 18.1732 119.007 17.9102C118.758 17.6471 118.383 17.5156 117.883 17.5156C117.541 17.5156 117.245 17.6077 116.995 17.7918C116.758 17.9759 116.64 18.2061 116.64 18.4823C116.64 18.9557 116.936 19.2451 117.528 19.3503L118.909 19.6462C119.843 19.8435 120.553 20.2052 121.039 20.7312C121.539 21.2573 121.789 21.8886 121.789 22.6251C121.789 23.4931 121.46 24.2427 120.803 24.874C120.145 25.5053 119.218 25.8209 118.021 25.8209C117.337 25.8209 116.726 25.7223 116.186 25.525C115.647 25.3146 115.226 25.0516 114.924 24.7359C114.634 24.4071 114.411 24.0849 114.253 23.7693C114.108 23.4405 114.016 23.1248 113.977 22.8223Z" fill="#44515D"/>
</svg>
