<svg width="83" height="20" viewBox="0 0 83 20" fill="none" xmlns="http://www.w3.org/2000/svg">
<path fill-rule="evenodd" clip-rule="evenodd" d="M40.5258 15.5078C36.7297 18.3058 31.2275 19.7987 26.4902 19.7987C19.8477 19.7987 13.8678 17.3419 9.34377 13.2557C8.98834 12.9344 9.30681 12.4965 9.73334 12.7467C14.6157 15.5874 20.6524 17.2964 26.8883 17.2964C31.0938 17.2964 35.7202 16.4262 39.9741 14.6206C40.6168 14.3476 41.1542 15.0415 40.5258 15.5078" fill="#8A9AA3"/>
<path fill-rule="evenodd" clip-rule="evenodd" d="M42.1039 13.7021C41.6205 13.0822 38.8964 13.4092 37.6737 13.5542C37.3012 13.5997 37.2443 13.2756 37.5799 13.0424C39.7495 11.5154 43.3096 11.9562 43.7247 12.468C44.1399 12.9827 43.6167 16.5513 41.5779 18.2546C41.2651 18.5162 40.9665 18.3769 41.1058 18.0299C41.5636 16.8868 42.5901 14.3248 42.1039 13.7021" fill="#8A9AA3"/>
<path fill-rule="evenodd" clip-rule="evenodd" d="M37.759 2.2627V0.778389C37.759 0.553752 37.9297 0.403046 38.1344 0.403046H44.7797C44.993 0.403046 45.1636 0.556596 45.1636 0.778389V2.04944C45.1607 2.2627 44.9816 2.54137 44.6631 2.98211L41.2196 7.89855C42.4992 7.86728 43.8499 8.05779 45.01 8.7118C45.2716 8.85966 45.3427 9.07577 45.3626 9.28903V10.8729C45.3626 11.089 45.1238 11.342 44.8735 11.2112C42.829 10.1392 40.1135 10.0227 37.8529 11.2226C37.6226 11.3477 37.3809 11.0975 37.3809 10.8814V9.37718C37.3809 9.13548 37.3837 8.72317 37.6254 8.35636L41.6149 2.63521H38.1429C37.9297 2.63521 37.759 2.4845 37.759 2.2627" fill="#8A9AA3"/>
<path fill-rule="evenodd" clip-rule="evenodd" d="M13.5181 11.524H11.4964C11.303 11.5098 11.1495 11.3648 11.1353 11.1799V0.803947C11.1353 0.59637 11.3087 0.431445 11.5248 0.431445H13.4101C13.6063 0.43997 13.7627 0.590682 13.7769 0.778354V2.13471H13.8138C14.3058 0.82385 15.2299 0.212494 16.4754 0.212494C17.7407 0.212494 18.5312 0.82385 19.0999 2.13471C19.589 0.82385 20.7008 0.212494 21.8923 0.212494C22.7396 0.212494 23.6666 0.562246 24.2325 1.34706C24.8723 2.22002 24.7415 3.48823 24.7415 4.60004L24.7386 11.1487C24.7386 11.3562 24.5652 11.524 24.3491 11.524H22.3302C22.1283 11.5098 21.9662 11.3477 21.9662 11.1487V5.6493C21.9662 5.2114 22.006 4.11949 21.9093 3.70433C21.7586 3.00767 21.3065 2.81147 20.7207 2.81147C20.2317 2.81147 19.7198 3.13847 19.5123 3.66168C19.3047 4.18489 19.3246 5.06069 19.3246 5.6493V11.1487C19.3246 11.3562 19.1511 11.524 18.935 11.524H16.9161C16.7114 11.5098 16.5522 11.3477 16.5522 11.1487L16.5493 5.6493C16.5493 4.49199 16.7398 2.78872 15.3039 2.78872C13.8508 2.78872 13.9077 4.44933 13.9077 5.6493V11.1487C13.9077 11.3562 13.7342 11.524 13.5181 11.524" fill="#8A9AA3"/>
<path fill-rule="evenodd" clip-rule="evenodd" d="M50.8847 0.212494C53.8846 0.212494 55.5083 2.78872 55.5083 6.06445C55.5083 9.22928 53.714 11.7401 50.8847 11.7401C47.9388 11.7401 46.3351 9.16388 46.3351 5.95355C46.3351 2.72332 47.9587 0.212494 50.8847 0.212494V0.212494ZM50.9018 2.33091C49.4118 2.33091 49.3179 4.36118 49.3179 5.62655C49.3179 6.89476 49.298 9.60178 50.8847 9.60178C52.4515 9.60178 52.5254 7.41796 52.5254 6.0872C52.5254 5.21139 52.4885 4.16498 52.224 3.33467C51.9965 2.61242 51.5444 2.33091 50.9018 2.33091" fill="#8A9AA3"/>
<path fill-rule="evenodd" clip-rule="evenodd" d="M59.3982 11.524H57.385C57.1831 11.5098 57.021 11.3477 57.021 11.1487L57.0182 0.769823C57.0353 0.579307 57.203 0.431445 57.4078 0.431445H59.2816C59.4579 0.43997 59.6029 0.559404 59.6428 0.721484V2.30817H59.6797C60.2456 0.889251 61.0389 0.212494 62.4351 0.212494C63.3422 0.212494 64.2265 0.539499 64.7952 1.43521C65.3241 2.26551 65.3241 3.66168 65.3241 4.66544V11.197C65.3013 11.379 65.1336 11.524 64.9345 11.524H62.9071C62.7223 11.5098 62.5687 11.3733 62.5488 11.197V5.56115C62.5488 4.42659 62.6796 2.76597 61.2835 2.76597C60.7915 2.76597 60.3394 3.09582 60.1148 3.59628C59.8304 4.23038 59.7935 4.86165 59.7935 5.56115V11.1487C59.7906 11.3562 59.6143 11.524 59.3982 11.524" fill="#8A9AA3"/>
<path fill-rule="evenodd" clip-rule="evenodd" d="M32.4616 6.56777C32.4616 7.35543 32.4815 8.01228 32.0834 8.71179C31.7621 9.28049 31.2502 9.63024 30.6844 9.63024C29.9081 9.63024 29.4531 9.03879 29.4531 8.16583C29.4531 6.44266 30.9972 6.12987 32.4616 6.12987V6.56777ZM34.5004 11.4956C34.3667 11.615 34.1734 11.6235 34.0227 11.5439C33.3516 10.9866 33.2293 10.7278 32.8625 10.1961C31.7535 11.3278 30.9659 11.6662 29.5299 11.6662C27.8266 11.6662 26.5044 10.6169 26.5044 8.51558C26.5044 6.87487 27.3916 5.75737 28.6598 5.21142C29.7574 4.72802 31.29 4.64271 32.4616 4.50907V4.24747C32.4616 3.76691 32.4985 3.19821 32.2142 2.78305C31.9696 2.41055 31.4976 2.257 31.0796 2.257C30.309 2.257 29.6237 2.65225 29.456 3.47118C29.4218 3.65317 29.2882 3.83231 29.1034 3.84084L27.1442 3.63042C26.9793 3.59346 26.7944 3.45981 26.8428 3.20674C27.292 0.829559 29.4417 0.112991 31.364 0.112991C32.3478 0.112991 33.6331 0.374595 34.4094 1.1196C35.3932 2.03805 35.2994 3.26361 35.2994 4.59722V7.74783C35.2994 8.69473 35.6918 9.10988 36.0615 9.62171C36.1894 9.8037 36.2179 10.0226 36.0529 10.1591C35.6406 10.5032 34.907 11.143 34.5032 11.5013L34.5004 11.4956" fill="#8A9AA3"/>
<path fill-rule="evenodd" clip-rule="evenodd" d="M5.95717 6.56802C5.95717 7.35567 5.97707 8.01252 5.57898 8.71203C5.25766 9.28073 4.74867 9.63049 4.17997 9.63049C3.40369 9.63049 2.95157 9.03903 2.95157 8.16607C2.95157 6.4429 4.4956 6.13012 5.95717 6.13012V6.56802ZM7.99597 11.4958C7.86232 11.6153 7.66896 11.6238 7.51826 11.5442C6.84719 10.9868 6.72776 10.7281 6.3581 10.1963C5.24913 11.3281 4.46432 11.6664 3.0255 11.6664C1.32508 11.6664 0 10.6172 0 8.51583C0 6.87512 0.89002 5.75762 2.15538 5.21166C3.25298 4.72826 4.78564 4.64296 5.95717 4.50931V4.24771C5.95717 3.76715 5.99413 3.19845 5.71262 2.7833C5.46524 2.4108 4.99322 2.25725 4.57806 2.25725C3.80747 2.25725 3.11934 2.6525 2.95157 3.47143C2.91745 3.65341 2.7838 3.83256 2.60182 3.84109L0.639791 3.63066C0.474867 3.5937 0.292882 3.46005 0.338378 3.20698C0.790497 0.829803 2.93735 0.113235 4.85957 0.113235C5.84342 0.113235 7.12869 0.374839 7.90497 1.11984C8.88883 2.0383 8.79499 3.26385 8.79499 4.59746V7.74808C8.79499 8.69497 9.1874 9.11012 9.55706 9.62196C9.68786 9.80394 9.71629 10.0229 9.55137 10.1594C9.13906 10.5034 8.40544 11.1432 8.00165 11.5015L7.99597 11.4958" fill="#8A9AA3"/>
<path fill-rule="evenodd" clip-rule="evenodd" d="M71.4722 0.1129C70.1989 0.1129 69.1666 1.14513 69.1666 2.41846V9.33512C69.1666 10.6084 70.1989 11.6407 71.4722 11.6407H80.6944C81.9677 11.6407 83 10.6084 83 9.33512V2.41846C83 1.14513 81.9677 0.1129 80.6944 0.1129H71.4722ZM78.5528 8.76315C77.2006 8.76315 76.3394 8.12017 76.3043 7.06413H77.4383C77.4928 7.52786 77.976 7.83181 78.5995 7.83181C79.2269 7.83181 79.6556 7.53175 79.6556 7.11869C79.6556 6.75239 79.3867 6.54975 78.7086 6.39778L77.976 6.23801C76.9395 6.01589 76.429 5.48981 76.429 4.66758C76.429 3.63103 77.3253 2.94519 78.58 2.94519C79.8894 2.94519 80.7116 3.61934 80.7311 4.63641H79.6283C79.5893 4.161 79.1723 3.87263 78.5839 3.87263C78.0033 3.87263 77.6136 4.14931 77.6136 4.56627C77.6136 4.91308 77.8864 5.10793 78.5333 5.25601L79.2152 5.40019C80.3414 5.64179 80.8324 6.125 80.8324 6.9823C80.8324 8.07341 79.9478 8.76315 78.5528 8.76315ZM73.1167 7.69152H75.6652V8.66573H71.9398V3.04261H75.6652V4.01292H73.1167V5.36901H75.521V6.27308H73.1167V7.69152Z" fill="#8A9AA3"/>
</svg>
