<svg width="67" height="12" viewBox="0 0 67 12" fill="none" xmlns="http://www.w3.org/2000/svg">
<path d="M24.0666 11.8773C21.7012 11.8773 19.5056 11.1679 18.04 9.85247C16.9327 8.85861 16.4006 7.50865 16.4006 6.11923C16.4006 4.74671 16.9557 3.38744 18.0398 2.39883C19.401 1.15835 21.804 0.381496 24.0666 0.381496C26.5703 0.381496 28.5743 1.01216 30.1062 2.40224C31.1962 3.39138 31.7232 4.74461 31.7232 6.11936C31.7232 7.45188 31.1639 8.87094 30.1062 9.85247C28.6797 11.1765 26.4379 11.8773 24.0666 11.8773V10.3611C25.322 10.3611 26.4865 9.9276 27.2999 9.11835C28.1075 8.31462 28.4838 7.32667 28.4838 6.11923C28.4838 4.96253 28.0779 3.88109 27.2999 3.11407C26.4974 2.3237 25.3051 1.87896 24.0666 1.87896C22.8242 1.87896 21.6311 2.31912 20.828 3.11407C20.0542 3.88083 19.6472 4.96541 19.6472 6.11923C19.6472 7.2695 20.0589 8.35343 20.828 9.11848C21.6317 9.91803 22.8207 10.3611 24.0666 10.3611V11.8773ZM6.7785 0.387003C5.51323 0.387003 4.07582 0.623666 2.85448 1.16911C1.72728 1.67206 0.804627 2.4855 0.804627 3.83402C0.804102 5.04854 1.57598 5.75984 1.555 5.74017C1.88331 6.04239 2.41184 6.55702 3.79366 6.85924C4.41121 6.99429 5.73154 7.20171 7.04636 7.33912C8.35148 7.47679 9.63589 7.60765 10.159 7.74007C10.5747 7.84588 11.2729 7.98998 11.2729 8.77326C11.2729 9.55339 10.5373 9.7915 10.4095 9.84316C10.2818 9.89364 9.39936 10.2985 7.81312 10.2985C6.642 10.2985 5.23409 9.94635 4.72091 9.76279C4.12931 9.55221 3.50875 9.27372 2.92987 8.56662C2.78591 8.39132 2.55882 7.90921 2.55882 7.43182H1.12324V11.4544H2.71891V10.911C2.71891 10.8491 2.79627 10.5946 3.06413 10.7156C3.39743 10.867 4.37581 11.2566 5.39877 11.4702C6.23751 11.6456 6.77836 11.7713 7.82112 11.7713C9.52247 11.7713 10.4365 11.4942 11.0683 11.3137C11.6636 11.1433 12.3991 10.8373 12.9966 10.3608C13.3202 10.1032 14.0298 9.44273 14.0298 8.24395C14.0298 7.09328 13.4123 6.3791 13.195 6.16184C12.8991 5.86578 12.5376 5.63633 12.1609 5.45945C11.8327 5.305 11.3148 5.11947 10.8911 5.01576C10.0686 4.81384 8.20883 4.56472 7.31948 4.47163C6.38685 4.37421 4.76902 4.24021 4.12289 4.04026C3.927 3.97956 3.52763 3.78931 3.52763 3.32569C3.52763 2.99593 3.71027 2.71639 4.07123 2.49048C4.6442 2.13149 5.80156 1.90833 7.00795 1.90833C8.43422 1.90309 9.64205 2.22917 10.4104 2.57269C10.6717 2.68939 10.9775 2.85695 11.2203 3.0552C11.4943 3.27862 11.879 3.7429 12.0181 4.39047H13.307V0.888912H11.8679V1.29589C11.8679 1.42727 11.7322 1.59798 11.4756 1.4569C10.8315 1.11902 9.01086 0.390019 6.7785 0.387003ZM38.3161 1.02331L45.3363 7.35879L45.2642 3.09322C45.2571 2.53388 45.1541 2.30037 44.5491 2.30037H43.2292V1.02435H49.2316V2.30037H47.9441C47.327 2.30037 47.2881 2.49769 47.2806 3.09322L47.3894 11.2437H45.3338L37.248 4.02715L37.2497 9.14877C37.2567 9.70549 37.2828 9.96772 37.8565 9.96772H39.2981V11.2432H33.4031V9.96785H34.7812C35.2959 9.96785 35.2755 9.47709 35.2755 9.1198V3.14173C35.2755 2.75586 35.2213 2.30128 34.4131 2.30128H33.295V1.02331H38.3161ZM56.0906 9.96536C56.147 9.96536 56.3974 9.95815 56.446 9.94333C56.507 9.92489 56.5633 9.89342 56.611 9.85109C56.6586 9.80875 56.6966 9.75657 56.7221 9.69814C56.7404 9.65488 56.7496 9.46345 56.7496 9.42188L56.7507 7.40533C56.7507 7.35682 56.7471 7.33584 56.6648 7.2278C56.5743 7.1098 52.9877 3.04523 52.8235 2.86626C52.6196 2.64402 52.2617 2.3005 51.7178 2.3005H50.4705V1.02396H57.5097V2.29892H56.6611C56.4648 2.29892 56.3344 2.48511 56.5021 2.69201C56.5021 2.69201 58.8704 5.52501 58.8928 5.55464C58.9149 5.5848 58.9337 5.59201 58.9639 5.56448C58.9935 5.53629 61.3916 2.71797 61.4105 2.69568C61.5246 2.55906 61.4472 2.30037 61.2014 2.30037H60.3309V1.02396H66.1V2.30037H64.8111C64.3436 2.30037 64.1533 2.3869 63.8015 2.78457C63.6406 2.96656 60.0157 7.10416 59.9171 7.21627C59.8654 7.27487 59.8699 7.35656 59.8699 7.40507V9.42136C59.8699 9.46227 59.8791 9.65396 59.8974 9.69696C59.923 9.75549 59.9609 9.80774 60.0087 9.85009C60.0565 9.89243 60.1129 9.92385 60.1741 9.94215C60.2226 9.9571 60.4696 9.96444 60.5259 9.96444H61.8442V11.2407H54.8414V9.96431L56.0906 9.96536Z" fill="black"/>
</svg>
