<svg width="64" height="15" viewBox="0 0 64 15" fill="none" xmlns="http://www.w3.org/2000/svg">
<path d="M3.06298 6.79578H5.19733C5.86309 6.79578 6.39179 6.61955 6.78341 6.26708C7.17504 5.90157 7.37085 5.41856 7.37085 4.81807C7.37085 4.20453 7.17504 3.72152 6.78341 3.36906C6.40484 3.00354 5.87615 2.82079 5.19733 2.82079H3.06298V6.79578ZM5.53021 9.12594H3.0434V14.3541H0.341187V0.471039H5.53021C6.88784 0.471039 7.98439 0.875718 8.81986 1.68508C9.66838 2.49443 10.0926 3.53224 10.0926 4.79849C10.0926 6.06474 9.66838 7.10255 8.81986 7.91191C7.98439 8.72126 6.88784 9.12594 5.53021 9.12594Z" fill="#424242"/>
<path d="M13.0141 11.554C13.4971 12.037 14.078 12.2785 14.7568 12.2785C15.4356 12.2785 16.01 12.037 16.4799 11.554C16.9629 11.071 17.2045 10.3987 17.2045 9.53715C17.2045 8.67557 16.9629 8.00329 16.4799 7.52028C16.01 7.03728 15.4356 6.79578 14.7568 6.79578C14.078 6.79578 13.4971 7.03728 13.0141 7.52028C12.5441 8.00329 12.3091 8.67557 12.3091 9.53715C12.3091 10.3987 12.5441 11.071 13.0141 11.554ZM11.1343 5.87546C12.1003 4.90945 13.3078 4.42645 14.7568 4.42645C16.2058 4.42645 17.4068 4.90945 18.3597 5.87546C19.3257 6.84147 19.8088 8.06203 19.8088 9.53715C19.8088 11.0123 19.3257 12.2328 18.3597 13.1988C17.4068 14.1648 16.2058 14.6479 14.7568 14.6479C13.3078 14.6479 12.1003 14.1648 11.1343 13.1988C10.1813 12.2328 9.70484 11.0123 9.70484 9.53715C9.70484 8.06203 10.1813 6.84147 11.1343 5.87546Z" fill="#424242"/>
<path d="M20.063 11.6715L22.2953 11.182C22.3214 11.5997 22.4845 11.9522 22.7848 12.2394C23.0981 12.5135 23.5224 12.6506 24.0576 12.6506C24.4623 12.6506 24.7756 12.5592 24.9975 12.3764C25.2194 12.1937 25.3304 11.9652 25.3304 11.6911C25.3304 11.2081 24.9844 10.8948 24.2925 10.7512L23.0198 10.4575C22.119 10.2617 21.4402 9.90919 20.9833 9.40008C20.5395 8.89097 20.3176 8.28395 20.3176 7.57903C20.3176 6.7044 20.657 5.96031 21.3358 5.34677C22.0277 4.73322 22.8892 4.42645 23.9205 4.42645C24.5732 4.42645 25.1476 4.52435 25.6437 4.72017C26.1397 4.90292 26.5248 5.14443 26.7989 5.44467C27.0731 5.73186 27.2819 6.02558 27.4255 6.32583C27.5691 6.62607 27.6605 6.91979 27.6997 7.20698L25.5262 7.69651C25.474 7.35711 25.3173 7.05686 25.0562 6.79578C24.8082 6.53469 24.4361 6.40415 23.9401 6.40415C23.6007 6.40415 23.307 6.49553 23.0589 6.67829C22.824 6.86105 22.7065 7.08949 22.7065 7.36363C22.7065 7.83358 23.0002 8.12077 23.5876 8.22521L24.9583 8.51892C25.8852 8.71474 26.5901 9.07373 27.0731 9.59589C27.5691 10.1181 27.8172 10.7447 27.8172 11.4757C27.8172 12.3373 27.4908 13.0814 26.8381 13.708C26.1854 14.3346 25.2651 14.6479 24.0772 14.6479C23.3983 14.6479 22.7913 14.5499 22.2561 14.3541C21.7209 14.1453 21.3031 13.8842 21.0029 13.5709C20.7157 13.2445 20.4938 12.9247 20.3371 12.6114C20.1935 12.285 20.1022 11.9717 20.063 11.6715Z" fill="#424242"/>
<path d="M32.1434 1.84172V4.72017H34.0819V7.03075H32.1434V11.0645C32.1434 11.4692 32.2348 11.7564 32.4175 11.9261C32.6003 12.0958 32.8875 12.1806 33.2791 12.1806C33.6316 12.1806 33.8992 12.1545 34.0819 12.1023V14.2562C33.7034 14.4129 33.2138 14.4912 32.6133 14.4912C31.6734 14.4912 30.9294 14.2301 30.3811 13.708C29.8328 13.1727 29.5587 12.4417 29.5587 11.5149V7.03075H27.8159V4.72017H28.3055C28.7885 4.72017 29.154 4.5831 29.402 4.30896C29.6631 4.02177 29.7937 3.64973 29.7937 3.19283V1.84172H32.1434Z" fill="#424242"/>
<path d="M37.1189 8.4406H41.4267C41.4006 7.90538 41.2048 7.45501 40.8393 7.08949C40.4868 6.72398 39.9647 6.54122 39.2728 6.54122C38.6462 6.54122 38.1371 6.73703 37.7455 7.12866C37.3538 7.52028 37.145 7.9576 37.1189 8.4406ZM41.6813 10.947L43.8548 11.5932C43.5937 12.4809 43.0781 13.2119 42.3079 13.7863C41.5507 14.3607 40.6043 14.6479 39.4686 14.6479C38.0849 14.6479 36.91 14.1844 35.944 13.2576C34.978 12.3177 34.495 11.0645 34.495 9.49799C34.495 8.00981 34.9649 6.79578 35.9048 5.85588C36.8447 4.90292 37.9543 4.42645 39.2336 4.42645C40.7218 4.42645 41.8836 4.87029 42.7191 5.75797C43.5676 6.64565 43.9919 7.86622 43.9919 9.41966C43.9919 9.52409 43.9853 9.64158 43.9723 9.77212C43.9723 9.90266 43.9723 10.0071 43.9723 10.0854L43.9527 10.2225H37.0601C37.0862 10.8491 37.3343 11.3713 37.8042 11.789C38.2742 12.2067 38.8355 12.4156 39.4882 12.4156C40.5978 12.4156 41.3288 11.9261 41.6813 10.947Z" fill="#424242"/>
<path d="M50.938 4.681V7.30489C50.6769 7.25267 50.4158 7.22656 50.1548 7.22656C49.4107 7.22656 48.8102 7.44196 48.3533 7.87274C47.8964 8.29048 47.6679 8.98235 47.6679 9.94835V14.3541H45.0636V4.72017H47.5896V6.1496C48.0596 5.14443 48.9734 4.64184 50.331 4.64184C50.4746 4.64184 50.6769 4.65489 50.938 4.681Z" fill="#424242"/>
<path d="M51.0258 11.6715L53.2581 11.182C53.2842 11.5997 53.4474 11.9522 53.7476 12.2394C54.0609 12.5135 54.4852 12.6506 55.0204 12.6506C55.4251 12.6506 55.7384 12.5592 55.9603 12.3764C56.1822 12.1937 56.2932 11.9652 56.2932 11.6911C56.2932 11.2081 55.9472 10.8948 55.2554 10.7512L53.9826 10.4575C53.0819 10.2617 52.403 9.90919 51.9461 9.40008C51.5023 8.89097 51.2804 8.28395 51.2804 7.57903C51.2804 6.7044 51.6198 5.96031 52.2986 5.34677C52.9905 4.73322 53.852 4.42645 54.8833 4.42645C55.536 4.42645 56.1104 4.52435 56.6065 4.72017C57.1025 4.90292 57.4876 5.14443 57.7618 5.44467C58.0359 5.73186 58.2448 6.02558 58.3884 6.32583C58.532 6.62607 58.6233 6.91979 58.6625 7.20698L56.489 7.69651C56.4368 7.35711 56.2801 7.05686 56.019 6.79578C55.771 6.53469 55.399 6.40415 54.9029 6.40415C54.5635 6.40415 54.2698 6.49553 54.0218 6.67829C53.7868 6.86105 53.6693 7.08949 53.6693 7.36363C53.6693 7.83358 53.963 8.12077 54.5504 8.22521L55.9211 8.51892C56.848 8.71474 57.5529 9.07373 58.0359 9.59589C58.532 10.1181 58.78 10.7447 58.78 11.4757C58.78 12.3373 58.4536 13.0814 57.8009 13.708C57.1482 14.3346 56.2279 14.6479 55.04 14.6479C54.3612 14.6479 53.7541 14.5499 53.2189 14.3541C52.6837 14.1453 52.266 13.8842 51.9657 13.5709C51.6785 13.2445 51.4566 12.9247 51.3 12.6114C51.1564 12.285 51.065 11.9717 51.0258 11.6715Z" fill="#424242"/>
<path d="M60.2865 13.9821C59.9341 13.6296 59.7578 13.2054 59.7578 12.7093C59.7578 12.2133 59.9341 11.7955 60.2865 11.4561C60.639 11.1036 61.0567 10.9274 61.5397 10.9274C62.0358 10.9274 62.46 11.1036 62.8125 11.4561C63.165 11.7955 63.3412 12.2133 63.3412 12.7093C63.3412 13.2054 63.165 13.6296 62.8125 13.9821C62.46 14.3215 62.0358 14.4912 61.5397 14.4912C61.0567 14.4912 60.639 14.3215 60.2865 13.9821Z" fill="#424242"/>
</svg>
