<svg width="63" height="15" viewBox="0 0 63 15" fill="none" xmlns="http://www.w3.org/2000/svg">
<path d="M2.72179 6.79578H4.85615C5.52191 6.79578 6.0506 6.61955 6.44222 6.26708C6.83385 5.90157 7.02966 5.41856 7.02966 4.81807C7.02966 4.20453 6.83385 3.72152 6.44222 3.36906C6.06365 3.00354 5.53496 2.82079 4.85615 2.82079H2.72179V6.79578ZM5.18903 9.12594H2.70221V14.3541H0V0.471039H5.18903C6.54666 0.471039 7.64321 0.875718 8.47867 1.68508C9.32719 2.49443 9.75145 3.53224 9.75145 4.79849C9.75145 6.06474 9.32719 7.10255 8.47867 7.91191C7.64321 8.72126 6.54666 9.12594 5.18903 9.12594Z" fill="#8A9AA3"/>
<path d="M12.6729 11.554C13.1559 12.037 13.7368 12.2785 14.4156 12.2785C15.0944 12.2785 15.6688 12.037 16.1388 11.554C16.6218 11.071 16.8633 10.3987 16.8633 9.53715C16.8633 8.67557 16.6218 8.00329 16.1388 7.52028C15.6688 7.03728 15.0944 6.79578 14.4156 6.79578C13.7368 6.79578 13.1559 7.03728 12.6729 7.52028C12.2029 8.00329 11.968 8.67557 11.968 9.53715C11.968 10.3987 12.2029 11.071 12.6729 11.554ZM10.7931 5.87546C11.7591 4.90945 12.9666 4.42645 14.4156 4.42645C15.8646 4.42645 17.0656 4.90945 18.0186 5.87546C18.9846 6.84147 19.4676 8.06203 19.4676 9.53715C19.4676 11.0123 18.9846 12.2328 18.0186 13.1988C17.0656 14.1648 15.8646 14.6479 14.4156 14.6479C12.9666 14.6479 11.7591 14.1648 10.7931 13.1988C9.84013 12.2328 9.36365 11.0123 9.36365 9.53715C9.36365 8.06203 9.84013 6.84147 10.7931 5.87546Z" fill="#8A9AA3"/>
<path d="M19.7218 11.6715L21.9541 11.182C21.9802 11.5997 22.1434 11.9522 22.4436 12.2394C22.7569 12.5135 23.1812 12.6506 23.7164 12.6506C24.1211 12.6506 24.4344 12.5592 24.6563 12.3764C24.8782 12.1937 24.9892 11.9652 24.9892 11.6911C24.9892 11.2081 24.6432 10.8948 23.9514 10.7512L22.6786 10.4575C21.7778 10.2617 21.099 9.90919 20.6421 9.40008C20.1983 8.89097 19.9764 8.28395 19.9764 7.57903C19.9764 6.7044 20.3158 5.96031 20.9946 5.34677C21.6865 4.73322 22.548 4.42645 23.5793 4.42645C24.232 4.42645 24.8064 4.52435 25.3025 4.72017C25.7985 4.90292 26.1836 5.14443 26.4578 5.44467C26.7319 5.73186 26.9408 6.02558 27.0844 6.32583C27.228 6.62607 27.3193 6.91979 27.3585 7.20698L25.185 7.69651C25.1328 7.35711 24.9761 7.05686 24.715 6.79578C24.467 6.53469 24.095 6.40415 23.5989 6.40415C23.2595 6.40415 22.9658 6.49553 22.7177 6.67829C22.4828 6.86105 22.3653 7.08949 22.3653 7.36363C22.3653 7.83358 22.659 8.12077 23.2464 8.22521L24.6171 8.51892C25.544 8.71474 26.2489 9.07373 26.7319 9.59589C27.228 10.1181 27.476 10.7447 27.476 11.4757C27.476 12.3373 27.1496 13.0814 26.4969 13.708C25.8442 14.3346 24.9239 14.6479 23.736 14.6479C23.0572 14.6479 22.4501 14.5499 21.9149 14.3541C21.3797 14.1453 20.962 13.8842 20.6617 13.5709C20.3745 13.2445 20.1526 12.9247 19.996 12.6114C19.8524 12.285 19.761 11.9717 19.7218 11.6715Z" fill="#8A9AA3"/>
<path d="M31.8022 1.84172V4.72017H33.7408V7.03075H31.8022V11.0645C31.8022 11.4692 31.8936 11.7564 32.0763 11.9261C32.2591 12.0958 32.5463 12.1806 32.9379 12.1806C33.2904 12.1806 33.558 12.1545 33.7408 12.1023V14.2562C33.3622 14.4129 32.8727 14.4912 32.2722 14.4912C31.3323 14.4912 30.5882 14.2301 30.0399 13.708C29.4916 13.1727 29.2175 12.4417 29.2175 11.5149V7.03075H27.4748V4.72017H27.9643C28.4473 4.72017 28.8128 4.5831 29.0608 4.30896C29.3219 4.02177 29.4525 3.64973 29.4525 3.19283V1.84172H31.8022Z" fill="#8A9AA3"/>
<path d="M36.7777 8.4406H41.0855C41.0594 7.90538 40.8636 7.45501 40.4981 7.08949C40.1456 6.72398 39.6235 6.54122 38.9316 6.54122C38.305 6.54122 37.7959 6.73703 37.4043 7.12866C37.0127 7.52028 36.8038 7.9576 36.7777 8.4406ZM41.3401 10.947L43.5136 11.5932C43.2525 12.4809 42.7369 13.2119 41.9667 13.7863C41.2096 14.3607 40.2631 14.6479 39.1274 14.6479C37.7437 14.6479 36.5688 14.1844 35.6028 13.2576C34.6368 12.3177 34.1538 11.0645 34.1538 9.49799C34.1538 8.00981 34.6237 6.79578 35.5636 5.85588C36.5035 4.90292 37.6131 4.42645 38.8925 4.42645C40.3806 4.42645 41.5424 4.87029 42.3779 5.75797C43.2264 6.64565 43.6507 7.86622 43.6507 9.41966C43.6507 9.52409 43.6442 9.64158 43.6311 9.77212C43.6311 9.90266 43.6311 10.0071 43.6311 10.0854L43.6115 10.2225H36.7189C36.745 10.8491 36.9931 11.3713 37.463 11.789C37.933 12.2067 38.4943 12.4156 39.147 12.4156C40.2566 12.4156 40.9876 11.9261 41.3401 10.947Z" fill="#8A9AA3"/>
<path d="M50.5968 4.681V7.30489C50.3357 7.25267 50.0747 7.22656 49.8136 7.22656C49.0695 7.22656 48.469 7.44196 48.0121 7.87274C47.5552 8.29048 47.3268 8.98235 47.3268 9.94835V14.3541H44.7225V4.72017H47.2484V6.1496C47.7184 5.14443 48.6322 4.64184 49.9898 4.64184C50.1334 4.64184 50.3357 4.65489 50.5968 4.681Z" fill="#8A9AA3"/>
<path d="M50.6846 11.6715L52.9169 11.182C52.943 11.5997 53.1062 11.9522 53.4064 12.2394C53.7197 12.5135 54.144 12.6506 54.6792 12.6506C55.0839 12.6506 55.3972 12.5592 55.6191 12.3764C55.841 12.1937 55.952 11.9652 55.952 11.6911C55.952 11.2081 55.606 10.8948 54.9142 10.7512L53.6414 10.4575C52.7407 10.2617 52.0618 9.90919 51.605 9.40008C51.1611 8.89097 50.9392 8.28395 50.9392 7.57903C50.9392 6.7044 51.2786 5.96031 51.9574 5.34677C52.6493 4.73322 53.5109 4.42645 54.5421 4.42645C55.1948 4.42645 55.7692 4.52435 56.2653 4.72017C56.7613 4.90292 57.1464 5.14443 57.4206 5.44467C57.6947 5.73186 57.9036 6.02558 58.0472 6.32583C58.1908 6.62607 58.2822 6.91979 58.3213 7.20698L56.1478 7.69651C56.0956 7.35711 55.9389 7.05686 55.6778 6.79578C55.4298 6.53469 55.0578 6.40415 54.5617 6.40415C54.2223 6.40415 53.9286 6.49553 53.6806 6.67829C53.4456 6.86105 53.3281 7.08949 53.3281 7.36363C53.3281 7.83358 53.6218 8.12077 54.2093 8.22521L55.5799 8.51892C56.5068 8.71474 57.2117 9.07373 57.6947 9.59589C58.1908 10.1181 58.4388 10.7447 58.4388 11.4757C58.4388 12.3373 58.1124 13.0814 57.4597 13.708C56.807 14.3346 55.8867 14.6479 54.6988 14.6479C54.02 14.6479 53.413 14.5499 52.8777 14.3541C52.3425 14.1453 51.9248 13.8842 51.6245 13.5709C51.3373 13.2445 51.1154 12.9247 50.9588 12.6114C50.8152 12.285 50.7238 11.9717 50.6846 11.6715Z" fill="#8A9AA3"/>
<path d="M59.9453 13.9821C59.5929 13.6296 59.4166 13.2054 59.4166 12.7093C59.4166 12.2133 59.5929 11.7955 59.9453 11.4561C60.2978 11.1036 60.7155 10.9274 61.1985 10.9274C61.6946 10.9274 62.1188 11.1036 62.4713 11.4561C62.8238 11.7955 63 12.2133 63 12.7093C63 13.2054 62.8238 13.6296 62.4713 13.9821C62.1188 14.3215 61.6946 14.4912 61.1985 14.4912C60.7155 14.4912 60.2978 14.3215 59.9453 13.9821Z" fill="#8A9AA3"/>
</svg>
