<svg width="136" height="26" viewBox="0 0 136 26" fill="none" xmlns="http://www.w3.org/2000/svg">
<path fill-rule="evenodd" clip-rule="evenodd" d="M129.788 18.5128C133.219 18.5128 136 15.7314 136 12.3004C136 8.91087 133.285 6.15536 129.912 6.08918V10.7377C129.912 11.6694 129.156 12.4246 128.225 12.4246H123.576C123.642 15.7983 126.398 18.5128 129.788 18.5128Z" fill="#8A9AA3"/>
<path fill-rule="evenodd" clip-rule="evenodd" d="M129.91 6.08817H125.262C124.331 6.08817 123.575 6.84344 123.575 7.77512V12.4236C120.201 12.3578 117.486 9.60217 117.486 6.21242C117.486 2.78139 120.268 -7.62939e-06 123.699 -7.62939e-06C127.088 -7.62939e-06 129.844 2.71449 129.91 6.08817Z" fill="#8A9AA3"/>
<path d="M4.35979 12.919V15.819H6.31281V18.1468H4.35979V22.2107C4.35979 22.6184 4.45185 22.9078 4.63597 23.0787C4.8201 23.2497 5.10943 23.3352 5.50398 23.3352C5.85908 23.3352 6.12869 23.3089 6.31281 23.2563V25.4263C5.93141 25.5841 5.43823 25.663 4.83325 25.663C3.88633 25.663 3.13668 25.4 2.58431 24.8739C2.03194 24.3347 1.75575 23.5982 1.75575 22.6644V18.1468H0V15.819H0.493188C0.979801 15.819 1.34805 15.6809 1.59793 15.4047C1.86096 15.1154 1.99248 14.7405 1.99248 14.2802V12.919H4.35979Z" fill="#8A9AA3"/>
<path d="M14.325 15.7795V18.423C14.0619 18.3704 13.7989 18.3441 13.5359 18.3441C12.7862 18.3441 12.1812 18.5611 11.7209 18.9951C11.2606 19.416 11.0305 20.113 11.0305 21.0862V25.5249H8.40671V15.819H10.9516V17.2591C11.425 16.2464 12.3456 15.7401 13.7134 15.7401C13.8581 15.7401 14.0619 15.7532 14.325 15.7795Z" fill="#8A9AA3"/>
<path d="M15.6365 22.8814C15.6365 22.0529 15.9062 21.3887 16.4454 20.889C16.9846 20.3892 17.6816 20.0736 18.5365 19.942L20.9235 19.5869C21.4101 19.5212 21.6534 19.291 21.6534 18.8965C21.6534 18.5282 21.5088 18.2257 21.2194 17.989C20.9433 17.7523 20.5421 17.6339 20.0161 17.6339C19.4637 17.6339 19.0231 17.7852 18.6943 18.0877C18.3787 18.3901 18.2011 18.765 18.1617 19.2121L15.8338 18.7189C15.9259 17.8772 16.3402 17.1342 17.0767 16.4897C17.8131 15.8453 18.7864 15.5231 19.9963 15.5231C21.443 15.5231 22.5083 15.8716 23.1922 16.5686C23.8761 17.2525 24.218 18.1337 24.218 19.2121V23.9862C24.218 24.5649 24.2575 25.0778 24.3364 25.5249H21.9296C21.8639 25.2356 21.831 24.8476 21.831 24.361C21.2129 25.3211 20.2594 25.8011 18.9705 25.8011C17.971 25.8011 17.1621 25.5118 16.544 24.9331C15.939 24.3544 15.6365 23.6705 15.6365 22.8814ZM19.5229 23.8481C20.141 23.8481 20.6473 23.6771 21.0419 23.3352C21.4496 22.9801 21.6534 22.4014 21.6534 21.5992V21.1652L19.4637 21.5005C18.6614 21.6189 18.2603 22.0266 18.2603 22.7236C18.2603 23.0393 18.3721 23.3089 18.5957 23.5325C18.8193 23.7429 19.1283 23.8481 19.5229 23.8481Z" fill="#8A9AA3"/>
<path d="M36.0764 11.2422V23.7692C36.0764 24.4136 36.1027 24.9989 36.1553 25.5249H33.6499C33.5842 25.1961 33.5513 24.8213 33.5513 24.4005C33.3277 24.8082 32.9726 25.137 32.486 25.3868C32.0126 25.6367 31.4602 25.7617 30.8289 25.7617C29.448 25.7617 28.3104 25.2816 27.416 24.3216C26.5349 23.3483 26.0943 22.1252 26.0943 20.6522C26.0943 19.2187 26.5283 18.0153 27.3963 17.0421C28.2775 16.0689 29.3954 15.5823 30.75 15.5823C32.1441 15.5823 33.0581 15.9834 33.4921 16.7856V11.2422H36.0764ZM28.7378 20.6522C28.7378 21.5071 28.9614 22.1844 29.4085 22.6842C29.8557 23.1708 30.4344 23.4141 31.1445 23.4141C31.8416 23.4141 32.4137 23.1642 32.8608 22.6644C33.308 22.1647 33.5316 21.4874 33.5316 20.6325C33.5316 19.7908 33.308 19.1332 32.8608 18.6598C32.4137 18.1731 31.8416 17.9298 31.1445 17.9298C30.4475 17.9298 29.8688 18.1731 29.4085 18.6598C28.9614 19.1464 28.7378 19.8105 28.7378 20.6522Z" fill="#8A9AA3"/>
<path d="M40.8363 19.5672H45.1764C45.1501 19.028 44.9528 18.5743 44.5846 18.206C44.2295 17.8378 43.7034 17.6536 43.0063 17.6536C42.3751 17.6536 41.8622 17.8509 41.4676 18.2455C41.0731 18.64 40.8626 19.0806 40.8363 19.5672ZM45.4328 22.0923L47.6226 22.7434C47.3596 23.6377 46.8401 24.3742 46.0641 24.9528C45.3013 25.5315 44.3478 25.8209 43.2036 25.8209C41.8095 25.8209 40.6259 25.354 39.6527 24.4202C38.6794 23.4733 38.1928 22.2107 38.1928 20.6325C38.1928 19.1332 38.6663 17.9101 39.6132 16.9632C40.5601 16.0031 41.678 15.5231 42.9669 15.5231C44.4662 15.5231 45.6367 15.9702 46.4784 16.8645C47.3333 17.7589 47.7607 18.9885 47.7607 20.5536C47.7607 20.6588 47.7541 20.7772 47.741 20.9087C47.741 21.0402 47.741 21.1454 47.741 21.2243L47.7212 21.3624H40.7771C40.8034 21.9937 41.0533 22.5198 41.5268 22.9406C42.0002 23.3615 42.5658 23.5719 43.2234 23.5719C44.3412 23.5719 45.0777 23.0787 45.4328 22.0923Z" fill="#8A9AA3"/>
<path d="M52.4506 19.942V25.5249H49.8268V15.819H52.3717V17.0224C52.6479 16.5489 53.0424 16.1872 53.5553 15.9374C54.0683 15.6875 54.6075 15.5625 55.173 15.5625C56.3172 15.5625 57.1852 15.9242 57.777 16.6475C58.382 17.3577 58.6845 18.2784 58.6845 19.4094V25.5249H56.0607V19.8631C56.0607 19.2845 55.9095 18.8176 55.607 18.4625C55.3177 18.1074 54.8705 17.9298 54.2655 17.9298C53.7132 17.9298 53.2726 18.1205 52.9438 18.5019C52.615 18.8833 52.4506 19.3634 52.4506 19.942Z" fill="#8A9AA3"/>
<path d="M63.9514 22.7039C64.4381 23.1905 65.0233 23.4338 65.7072 23.4338C66.3911 23.4338 66.9698 23.1905 67.4432 22.7039C67.9298 22.2173 68.1731 21.54 68.1731 20.672C68.1731 19.8039 67.9298 19.1266 67.4432 18.64C66.9698 18.1534 66.3911 17.9101 65.7072 17.9101C65.0233 17.9101 64.4381 18.1534 63.9514 18.64C63.478 19.1266 63.2413 19.8039 63.2413 20.672C63.2413 21.54 63.478 22.2173 63.9514 22.7039ZM62.0576 16.9829C63.0308 16.0097 64.2474 15.5231 65.7072 15.5231C67.167 15.5231 68.377 16.0097 69.3371 16.9829C70.3103 17.9561 70.7969 19.1858 70.7969 20.672C70.7969 22.1581 70.3103 23.3878 69.3371 24.361C68.377 25.3342 67.167 25.8209 65.7072 25.8209C64.2474 25.8209 63.0308 25.3342 62.0576 24.361C61.0975 23.3878 60.6175 22.1581 60.6175 20.672C60.6175 19.1858 61.0975 17.9561 62.0576 16.9829Z" fill="#8A9AA3"/>
<path d="M75.4918 25.5249H72.868V11.2422H75.4918V25.5249Z" fill="#8A9AA3"/>
<path d="M80.9245 25.5249H78.3008V15.819H80.9245V25.5249ZM77.9851 12.6428C77.9851 12.1957 78.1429 11.8143 78.4586 11.4987C78.7742 11.1699 79.1556 11.0055 79.6028 11.0055C80.0499 11.0055 80.4313 11.1633 80.747 11.4789C81.0626 11.7946 81.2204 12.1825 81.2204 12.6428C81.2204 13.0769 81.0626 13.4517 80.747 13.7673C80.4313 14.083 80.0499 14.2408 79.6028 14.2408C79.1556 14.2408 78.7742 14.083 78.4586 13.7673C78.1429 13.4517 77.9851 13.0769 77.9851 12.6428Z" fill="#8A9AA3"/>
<path d="M86.3573 25.5249H83.7335V15.819H86.2389V17.0026C86.4888 16.5555 86.8834 16.2004 87.4226 15.9374C87.9618 15.6743 88.5142 15.5428 89.0797 15.5428C90.4869 15.5428 91.447 16.082 91.9599 17.1605C92.657 16.082 93.6828 15.5428 95.0374 15.5428C96.0238 15.5428 96.8524 15.8519 97.5231 16.47C98.207 17.0881 98.5489 18.0087 98.5489 19.2319V25.5249H96.0041V19.7645C96.0041 19.2121 95.8594 18.7715 95.5701 18.4427C95.2939 18.1008 94.8665 17.9298 94.2878 17.9298C93.7486 17.9298 93.3146 18.114 92.9858 18.4822C92.657 18.8505 92.4926 19.3042 92.4926 19.8434V25.5249H89.8885V19.7645C89.8885 19.2121 89.7439 18.7715 89.4545 18.4427C89.1652 18.1008 88.7378 17.9298 88.1722 17.9298C87.6199 17.9298 87.1793 18.114 86.8505 18.4822C86.5217 18.8373 86.3573 19.291 86.3573 19.8434V25.5249Z" fill="#8A9AA3"/>
<path d="M103.831 25.5249H101.207V15.819H103.831V25.5249ZM100.891 12.6428C100.891 12.1957 101.049 11.8143 101.365 11.4987C101.681 11.1699 102.062 11.0055 102.509 11.0055C102.956 11.0055 103.338 11.1633 103.653 11.4789C103.969 11.7946 104.127 12.1825 104.127 12.6428C104.127 13.0769 103.969 13.4517 103.653 13.7673C103.338 14.083 102.956 14.2408 102.509 14.2408C102.062 14.2408 101.681 14.083 101.365 13.7673C101.049 13.4517 100.891 13.0769 100.891 12.6428Z" fill="#8A9AA3"/>
<path d="M109.875 12.919V15.819H111.828V18.1468H109.875V22.2107C109.875 22.6184 109.967 22.9078 110.151 23.0787C110.335 23.2497 110.625 23.3352 111.019 23.3352C111.374 23.3352 111.644 23.3089 111.828 23.2563V25.4263C111.447 25.5841 110.954 25.663 110.349 25.663C109.402 25.663 108.652 25.4 108.1 24.8739C107.547 24.3347 107.271 23.5982 107.271 22.6644V18.1468H105.515V15.819H106.009C106.495 15.819 106.863 15.6809 107.113 15.4047C107.376 15.1154 107.508 14.7405 107.508 14.2802V12.919H109.875Z" fill="#8A9AA3"/>
<path d="M113.44 22.8223L115.689 22.3291C115.716 22.7499 115.88 23.105 116.182 23.3944C116.498 23.6705 116.925 23.8086 117.465 23.8086C117.872 23.8086 118.188 23.7166 118.412 23.5325C118.635 23.3483 118.747 23.1182 118.747 22.842C118.747 22.3554 118.398 22.0397 117.701 21.8951L116.419 21.5992C115.512 21.4019 114.828 21.0468 114.367 20.5339C113.92 20.021 113.697 19.4094 113.697 18.6992C113.697 17.818 114.039 17.0684 114.723 16.4503C115.42 15.8321 116.288 15.5231 117.327 15.5231C117.984 15.5231 118.563 15.6217 119.063 15.819C119.562 16.0031 119.95 16.2464 120.227 16.5489C120.503 16.8382 120.713 17.1342 120.858 17.4366C121.003 17.7391 121.095 18.035 121.134 18.3244L118.944 18.8176C118.892 18.4756 118.734 18.1731 118.471 17.9101C118.221 17.6471 117.846 17.5156 117.346 17.5156C117.004 17.5156 116.708 17.6076 116.459 17.7917C116.222 17.9759 116.104 18.206 116.104 18.4822C116.104 18.9557 116.399 19.245 116.991 19.3502L118.372 19.6461C119.306 19.8434 120.016 20.2051 120.503 20.7311C121.003 21.2572 121.252 21.8885 121.252 22.625C121.252 23.493 120.924 24.2426 120.266 24.8739C119.608 25.5052 118.681 25.8209 117.484 25.8209C116.801 25.8209 116.189 25.7222 115.65 25.5249C115.111 25.3145 114.69 25.0515 114.387 24.7358C114.098 24.407 113.874 24.0848 113.716 23.7692C113.572 23.4404 113.48 23.1248 113.44 22.8223Z" fill="#8A9AA3"/>
</svg>
