<svg width="84" height="20" viewBox="0 0 84 20" fill="none" xmlns="http://www.w3.org/2000/svg">
<path fill-rule="evenodd" clip-rule="evenodd" d="M40.9781 15.5078C37.182 18.3058 31.6798 19.7987 26.9425 19.7987C20.3 19.7987 14.3201 17.3419 9.79608 13.2557C9.44064 12.9344 9.75911 12.4965 10.1856 12.7467C15.068 15.5874 21.1047 17.2964 27.3406 17.2964C31.5461 17.2964 36.1725 16.4262 40.4264 14.6206C41.0691 14.3476 41.6065 15.0415 40.9781 15.5078" fill="#FF9900"/>
<path fill-rule="evenodd" clip-rule="evenodd" d="M42.5562 13.7021C42.0728 13.0822 39.3487 13.4092 38.126 13.5542C37.7535 13.5997 37.6966 13.2756 38.0322 13.0424C40.2018 11.5154 43.7619 11.9562 44.177 12.468C44.5922 12.9827 44.069 16.5513 42.0302 18.2546C41.7174 18.5162 41.4188 18.3769 41.5581 18.0299C42.0159 16.8868 43.0425 14.3248 42.5562 13.7021" fill="#FF9900"/>
<path fill-rule="evenodd" clip-rule="evenodd" d="M38.2113 2.2627V0.778389C38.2113 0.553752 38.3819 0.403046 38.5867 0.403046H45.232C45.4452 0.403046 45.6158 0.556596 45.6158 0.778389V2.04944C45.613 2.2627 45.4338 2.54137 45.1154 2.98211L41.6719 7.89855C42.9515 7.86728 44.3021 8.05779 45.4623 8.7118C45.7239 8.85966 45.795 9.07577 45.8149 9.28903V10.8729C45.8149 11.089 45.576 11.342 45.3258 11.2112C43.2813 10.1392 40.5658 10.0227 38.3052 11.2226C38.0748 11.3477 37.8331 11.0975 37.8331 10.8814V9.37718C37.8331 9.13548 37.836 8.72317 38.0777 8.35636L42.0671 2.63521H38.5952C38.3819 2.63521 38.2113 2.4845 38.2113 2.2627" fill="#26303E"/>
<path fill-rule="evenodd" clip-rule="evenodd" d="M13.9704 11.524H11.9486C11.7553 11.5098 11.6017 11.3648 11.5875 11.1799V0.803947C11.5875 0.59637 11.7609 0.431445 11.9771 0.431445H13.8623C14.0585 0.43997 14.2149 0.590682 14.2291 0.778354V2.13471H14.2661C14.758 0.82385 15.6822 0.212494 16.9276 0.212494C18.193 0.212494 18.9835 0.82385 19.5522 2.13471C20.0413 0.82385 21.1531 0.212494 22.3445 0.212494C23.1919 0.212494 24.1189 0.562246 24.6847 1.34706C25.3245 2.22002 25.1937 3.48823 25.1937 4.60004L25.1909 11.1487C25.1909 11.3562 25.0174 11.524 24.8013 11.524H22.7824C22.5805 11.5098 22.4184 11.3477 22.4184 11.1487V5.6493C22.4184 5.2114 22.4583 4.11949 22.3616 3.70433C22.2109 3.00767 21.7588 2.81147 21.173 2.81147C20.6839 2.81147 20.1721 3.13847 19.9645 3.66168C19.7569 4.18489 19.7768 5.06069 19.7768 5.6493V11.1487C19.7768 11.3562 19.6034 11.524 19.3873 11.524H17.3684C17.1636 11.5098 17.0044 11.3477 17.0044 11.1487L17.0016 5.6493C17.0016 4.49199 17.1921 2.78872 15.7561 2.78872C14.3031 2.78872 14.3599 4.44933 14.3599 5.6493V11.1487C14.3599 11.3562 14.1865 11.524 13.9704 11.524" fill="#26303E"/>
<path fill-rule="evenodd" clip-rule="evenodd" d="M51.337 0.212494C54.337 0.212494 55.9606 2.78872 55.9606 6.06445C55.9606 9.22928 54.1663 11.7401 51.337 11.7401C48.3912 11.7401 46.7874 9.16388 46.7874 5.95355C46.7874 2.72332 48.4111 0.212494 51.337 0.212494V0.212494ZM51.3541 2.33091C49.8641 2.33091 49.7703 4.36118 49.7703 5.62655C49.7703 6.89476 49.7504 9.60178 51.337 9.60178C52.9038 9.60178 52.9778 7.41796 52.9778 6.0872C52.9778 5.21139 52.9408 4.16498 52.6763 3.33467C52.4489 2.61242 51.9967 2.33091 51.3541 2.33091" fill="#26303E"/>
<path fill-rule="evenodd" clip-rule="evenodd" d="M59.8505 11.524H57.8373C57.6354 11.5098 57.4733 11.3477 57.4733 11.1487L57.4705 0.769823C57.4876 0.579307 57.6553 0.431445 57.8601 0.431445H59.7339C59.9102 0.43997 60.0552 0.559404 60.0951 0.721484V2.30817H60.132C60.6979 0.889251 61.4912 0.212494 62.8874 0.212494C63.7945 0.212494 64.6788 0.539499 65.2475 1.43521C65.7764 2.26551 65.7764 3.66168 65.7764 4.66544V11.197C65.7536 11.379 65.5859 11.524 65.3868 11.524H63.3594C63.1746 11.5098 63.021 11.3733 63.0011 11.197V5.56115C63.0011 4.42659 63.1319 2.76597 61.7358 2.76597C61.2438 2.76597 60.7917 3.09582 60.5671 3.59628C60.2827 4.23038 60.2458 4.86165 60.2458 5.56115V11.1487C60.2429 11.3562 60.0666 11.524 59.8505 11.524" fill="#26303E"/>
<path fill-rule="evenodd" clip-rule="evenodd" d="M32.9139 6.56777C32.9139 7.35543 32.9338 8.01228 32.5357 8.71179C32.2144 9.28049 31.7026 9.63024 31.1367 9.63024C30.3604 9.63024 29.9055 9.03879 29.9055 8.16583C29.9055 6.44266 31.4495 6.12987 32.9139 6.12987V6.56777ZM34.9527 11.4956C34.8191 11.615 34.6257 11.6235 34.475 11.5439C33.8039 10.9866 33.6816 10.7278 33.3148 10.1961C32.2059 11.3278 31.4182 11.6662 29.9822 11.6662C28.279 11.6662 26.9567 10.6169 26.9567 8.51558C26.9567 6.87487 27.8439 5.75737 29.1121 5.21142C30.2097 4.72802 31.7424 4.64271 32.9139 4.50907V4.24747C32.9139 3.76691 32.9509 3.19821 32.6665 2.78305C32.422 2.41055 31.9499 2.257 31.5319 2.257C30.7614 2.257 30.0761 2.65225 29.9083 3.47118C29.8742 3.65317 29.7405 3.83231 29.5557 3.84084L27.5965 3.63042C27.4316 3.59346 27.2468 3.45981 27.2951 3.20674C27.7444 0.829559 29.8941 0.112991 31.8163 0.112991C32.8002 0.112991 34.0854 0.374595 34.8617 1.1196C35.8456 2.03805 35.7517 3.26361 35.7517 4.59722V7.74783C35.7517 8.69473 36.1441 9.10988 36.5138 9.62171C36.6417 9.8037 36.6702 10.0226 36.5053 10.1591C36.0929 10.5032 35.3593 11.143 34.9555 11.5013L34.9527 11.4956" fill="#26303E"/>
<path fill-rule="evenodd" clip-rule="evenodd" d="M6.40947 6.56802C6.40947 7.35567 6.42937 8.01252 6.03128 8.71203C5.70996 9.28073 5.20097 9.63049 4.63227 9.63049C3.85599 9.63049 3.40387 9.03903 3.40387 8.16607C3.40387 6.4429 4.9479 6.13012 6.40947 6.13012V6.56802ZM8.44827 11.4958C8.31462 11.6153 8.12126 11.6238 7.97056 11.5442C7.29949 10.9868 7.18006 10.7281 6.8104 10.1963C5.70143 11.3281 4.91662 11.6664 3.4778 11.6664C1.77738 11.6664 0.452301 10.6172 0.452301 8.51583C0.452301 6.87512 1.34232 5.75762 2.60769 5.21166C3.70528 4.72826 5.23794 4.64296 6.40947 4.50931V4.24771C6.40947 3.76715 6.44643 3.19845 6.16493 2.7833C5.91754 2.4108 5.44552 2.25725 5.03036 2.25725C4.25977 2.25725 3.57164 2.6525 3.40387 3.47143C3.36975 3.65341 3.2361 3.83256 3.05412 3.84109L1.09209 3.63066C0.927168 3.5937 0.745183 3.46005 0.790679 3.20698C1.2428 0.829803 3.38965 0.113235 5.31187 0.113235C6.29573 0.113235 7.58099 0.374839 8.35728 1.11984C9.34113 2.0383 9.2473 3.26385 9.2473 4.59746V7.74808C9.2473 8.69497 9.6397 9.11012 10.0094 9.62196C10.1402 9.80394 10.1686 10.0229 10.0037 10.1594C9.59136 10.5034 8.85774 11.1432 8.45395 11.5015L8.44827 11.4958" fill="#26303E"/>
<path fill-rule="evenodd" clip-rule="evenodd" d="M72.0805 0.1129C70.721 0.1129 69.619 1.21497 69.619 2.57443V9.17915C69.619 10.5386 70.721 11.6407 72.0805 11.6407H80.9908C82.3502 11.6407 83.4523 10.5386 83.4523 9.17915V2.57443C83.4523 1.21496 82.3502 0.1129 80.9908 0.1129H72.0805ZM79.0051 8.76749C77.6529 8.76749 76.7917 8.12452 76.7566 7.06848H77.8906C77.9451 7.5322 78.4283 7.83615 79.0518 7.83615C79.6792 7.83615 80.1079 7.5361 80.1079 7.12303C80.1079 6.75673 79.839 6.5541 79.1609 6.40212L78.4283 6.24235C77.3918 6.02023 76.8813 5.49416 76.8813 4.67193C76.8813 3.63537 77.7776 2.94953 79.0323 2.94953C80.3417 2.94953 81.1639 3.62368 81.1834 4.64075H80.0806C80.0416 4.16534 79.6247 3.87698 79.0362 3.87698C78.4556 3.87698 78.0659 4.15365 78.0659 4.57061C78.0659 4.91743 78.3387 5.11227 78.9856 5.26035L79.6675 5.40453C80.7937 5.64614 81.2847 6.12934 81.2847 6.98664C81.2847 8.07776 80.4001 8.76749 79.0051 8.76749ZM73.569 7.69587H76.1175V8.67007H72.3921V3.04695H76.1175V4.01726H73.569V5.37336H75.9733V6.27742H73.569V7.69587Z" fill="#FF9900"/>
</svg>
