<svg width="73" height="20" viewBox="0 0 73 20" fill="none" xmlns="http://www.w3.org/2000/svg">
<path d="M0.536346 16.6719H8.44506V14.0831H3.39894V4.20709H0.536346V16.6719ZM12.4492 16.6719V8.08641H9.58684V16.6719H12.4492ZM11.0183 6.91441C12.0162 6.91441 12.6375 6.2551 12.6375 5.43071C12.619 4.58836 12.0162 3.94775 11.0373 3.94775C10.0581 3.94775 9.41776 4.58861 9.41776 5.43071C9.41776 6.2551 10.0391 6.91441 10.9995 6.91441H11.0183V6.91441ZM13.7781 16.6719H16.6404V11.8772C16.6404 11.6206 16.6589 11.364 16.7347 11.1812C16.9413 10.6685 17.4123 10.1374 18.2031 10.1374C19.2391 10.1374 19.6536 10.9249 19.6536 12.0784V16.6717H22.5154V11.749C22.5154 9.11178 21.1032 7.88467 19.2199 7.88467C17.6759 7.88467 16.9978 8.74522 16.6211 9.33147H16.6404V8.08641H13.7781C13.8158 8.8921 13.7781 16.6719 13.7781 16.6719V16.6719ZM26.5536 4.20709H23.6912V16.6719H26.5536V13.8883L27.2689 12.9904L29.5099 16.6719H33.0311L29.2653 11.3423L32.5604 7.71661H29.1148C29.1148 7.71661 26.7609 10.9603 26.5536 11.3453V4.20709Z" fill="#2867B2"/>
<path d="M40.6854 13.0906C40.7232 12.8702 40.7797 12.4473 40.7797 11.969C40.7797 9.74966 39.6496 7.49643 36.6745 7.49643C33.492 7.49643 32.0231 10.0058 32.0231 12.2817C32.0231 15.0965 33.8122 16.8542 36.9379 16.8542C38.181 16.8542 39.3292 16.6717 40.2712 16.2869L39.8945 14.4023C39.1221 14.6576 38.3313 14.7855 37.3523 14.7855C36.0154 14.7855 34.8481 14.2382 34.7539 13.0722L40.6854 13.0901V13.0906V13.0906ZM34.7351 11.16C34.8104 10.4274 35.3004 9.34644 36.5242 9.34644C37.8233 9.34644 38.1249 10.5005 38.1249 11.16H34.7353H34.7351ZM47.8447 4.2071V8.52205H47.807C47.3925 7.9181 46.5264 7.51513 45.3783 7.51513C43.1748 7.51513 41.2354 9.27313 41.2539 12.2764C41.2539 15.0603 43.0055 16.8734 45.1895 16.8734C46.3761 16.8734 47.5056 16.3602 48.0708 15.3713H48.1271L48.2404 16.6719H50.7824C50.7449 16.0675 50.7068 15.0237 50.7068 13.998V4.20685H47.8445L47.8447 4.2071ZM47.8447 12.6979C47.8447 12.9173 47.826 13.1375 47.788 13.32C47.6191 14.108 46.9411 14.6568 46.1124 14.6568C44.9264 14.6568 44.154 13.7048 44.154 12.2031C44.154 10.7932 44.8136 9.65764 46.1314 9.65764C47.0164 9.65764 47.6376 10.2618 47.8072 11.0124C47.8447 11.1778 47.8447 11.361 47.8447 11.5256V12.6976V12.6979Z" fill="#2867B2"/>
<path fill-rule="evenodd" clip-rule="evenodd" d="M54.9861 0.745461C54.2128 0.745461 53.5855 1.35565 53.5855 2.10747V18.3973C53.5855 19.1491 54.2128 19.7588 54.9861 19.7588H71.1357C71.9093 19.7588 72.5364 19.1491 72.5364 18.397V2.10747C72.5364 1.35565 71.9093 0.745461 71.1357 0.745461H54.9861ZM59.3302 8.07595V16.6615H56.4678V8.07595H59.3302ZM59.5188 5.42074C59.5188 6.24463 58.8975 6.90395 57.8995 6.90395H57.8807C56.92 6.90395 56.299 6.24463 56.299 5.42074C56.299 4.57815 56.9388 3.93729 57.9185 3.93729C58.8975 3.93729 59.5 4.57815 59.5188 5.42074ZM63.7765 16.6615H60.9144C60.9147 16.6109 60.9518 8.879 60.9147 8.07619H63.7768V9.2916C64.1572 8.70668 64.8381 7.87471 66.3565 7.87471C68.2396 7.87471 69.6515 9.10182 69.6515 11.7388V16.6615H66.7894V12.069C66.7894 10.9147 66.375 10.1274 65.3395 10.1274C64.5486 10.1274 64.0776 10.6583 63.8708 11.1713C63.7953 11.3543 63.7765 11.6111 63.7765 11.8675V16.6615Z" fill="#2867B2"/>
</svg>
