<svg width="50" height="33" viewBox="0 0 50 33" fill="none" xmlns="http://www.w3.org/2000/svg">
<path fill-rule="evenodd" clip-rule="evenodd" d="M9.05824 25.1192C8.63164 24.8491 8.09497 24.9431 7.81088 25.3499C7.52724 25.7561 7.63169 26.312 8.04174 26.5908L8.04805 26.5949C12.1505 29.1085 17.4188 31.6738 25.2258 31.6738C32.2136 31.6738 36.5353 29.7966 41.6662 26.6711C42.0774 26.4206 42.2347 25.876 41.9768 25.4492C41.7226 25.0284 41.144 24.8852 40.7381 25.1434C35.1904 28.6735 30.4072 29.9928 25.2258 29.9928C20.0409 29.9928 14.7962 28.7526 9.05824 25.1192Z" fill="#1446E7"/>
<path d="M7.81088 25.3499L7.50639 25.1373L7.50639 25.1373L7.81088 25.3499ZM9.05824 25.1192L9.25693 24.8054L9.25693 24.8054L9.05824 25.1192ZM8.04174 26.5908L7.83284 26.898L7.84025 26.9028L8.04174 26.5908ZM8.04805 26.5949L7.8465 26.907L7.85403 26.9116L8.04805 26.5949ZM41.6662 26.6711L41.473 26.354L41.473 26.354L41.6662 26.6711ZM41.9768 25.4492L41.6589 25.6413L41.6589 25.6413L41.9768 25.4492ZM40.7381 25.1434L40.5388 24.8301L40.5388 24.8301L40.7381 25.1434ZM8.11537 25.5625C8.27864 25.3287 8.59004 25.2623 8.85956 25.433L9.25693 24.8054C8.67324 24.4358 7.91129 24.5574 7.50639 25.1373L8.11537 25.5625ZM8.25059 26.2837C8.01016 26.1202 7.95119 25.7977 8.11537 25.5625L7.50639 25.1373C7.10328 25.7146 7.25323 26.5037 7.83289 26.8979L8.25059 26.2837ZM8.24955 26.2829L8.24324 26.2789L7.84025 26.9028L7.84656 26.9069L8.24955 26.2829ZM25.2258 31.3024C17.5121 31.3024 12.3117 28.7717 8.24208 26.2782L7.85403 26.9116C11.9892 29.4452 17.3254 32.0452 25.2258 32.0452V31.3024ZM41.473 26.354C36.3782 29.4574 32.1235 31.3024 25.2258 31.3024V32.0452C32.3036 32.0452 36.6923 30.1358 41.8594 26.9883L41.473 26.354ZM41.6589 25.6413C41.8043 25.8818 41.7209 26.203 41.473 26.354L41.8594 26.9883C42.434 26.6383 42.6651 25.8702 42.2946 25.2571L41.6589 25.6413ZM40.9375 25.4567C41.1603 25.3149 41.5081 25.3916 41.6589 25.6413L42.2946 25.2571C41.937 24.6653 41.1276 24.4554 40.5388 24.8301L40.9375 25.4567ZM25.2258 30.3641C30.4838 30.3641 35.3354 29.0214 40.9375 25.4567L40.5388 24.8301C35.0455 28.3256 30.3307 29.6214 25.2258 29.6214V30.3641ZM8.85956 25.433C14.6587 29.1051 19.9726 30.3641 25.2258 30.3641V29.6214C20.1091 29.6214 14.9336 28.4001 9.25693 24.8054L8.85956 25.433Z" fill="#1446E7"/>
<path fill-rule="evenodd" clip-rule="evenodd" d="M10.3647 1.12607C10.6757 0.52504 11.4149 0.290009 12.0157 0.601299C12.6165 0.912556 12.8512 1.65207 12.5402 2.25303L8.66155 9.73208C9.0239 9.76593 9.39286 9.85349 9.76599 9.99476L9.77725 9.99937C11.0153 10.5466 11.7649 11.3646 11.9856 12.3937C12.1497 13.1591 11.9951 13.9126 11.6704 14.537C11.3873 15.0812 11.0955 15.6204 10.8047 16.1578L10.7754 16.2119C10.4746 16.7678 10.1752 17.3219 9.88596 17.881C9.77393 18.0976 9.64573 18.5012 9.67067 18.8323C9.68285 18.994 9.72956 19.1144 9.80653 19.1937C9.87981 19.2692 10.0092 19.337 10.2517 19.337C11.1032 19.337 12.1251 19.0626 13.3537 18.5708C13.3437 18.5177 13.3347 18.4641 13.3267 18.4103C13.2075 17.6123 13.3032 16.7738 13.5619 15.9083C13.9249 14.6934 14.5497 13.5818 15.2995 12.466C16.5662 10.5811 18.8308 9.45827 20.9134 9.92348C21.6509 10.0882 22.2244 10.5191 22.5137 11.1726C22.7421 11.6886 22.7576 12.2503 22.6404 12.8282C22.4859 13.59 22.0795 14.4249 21.6481 15.0381C20.3659 16.8604 18.7643 18.3453 16.9716 19.4722C17.4753 19.6933 17.9989 19.6943 18.5867 19.501C19.349 19.2504 20.173 18.679 20.9694 17.8861C21.4747 17.3829 21.6676 17.1891 21.9128 16.935C22.2623 16.5729 22.5544 16.2522 22.833 15.9216C23.5025 15.1273 24.1296 14.2294 24.861 12.9892C25.8723 11.2744 28.0251 7.2609 31.107 1.14956C31.2854 0.79577 31.5652 0.585504 31.8776 0.504345C32.1843 0.424644 32.5078 0.472797 32.7808 0.605234C33.0537 0.737626 33.2908 0.961436 33.4139 1.25163C33.5395 1.54761 33.539 1.89588 33.3616 2.25034L33.3601 2.25331L25.2533 17.8649C25.0089 18.3394 25.078 18.7854 25.1339 18.9537C25.1641 19.0447 25.1882 19.0829 25.2059 19.1036C25.2231 19.1237 25.2466 19.1423 25.3073 19.1757C25.453 19.256 25.7251 19.249 26.1524 19.0291C26.5656 18.8164 27.065 18.4332 27.6122 17.8871C28.0963 17.4039 28.6541 16.5569 29.2779 15.3783C29.4752 15.0053 29.8331 14.3223 30.1535 13.7099C30.2651 13.4965 30.3723 13.2916 30.4665 13.1115C30.6424 12.7752 30.7732 12.5251 30.8039 12.4671C31.2776 11.5718 31.7802 10.7356 32.5428 10.2797C33.468 9.72672 34.5862 9.61966 35.9042 9.92578C36.3129 10.0207 36.7185 10.1367 37.1174 10.2508C37.2599 10.2916 37.4016 10.3321 37.5422 10.3713C38.0814 10.5217 38.6135 10.6555 39.1577 10.7262C39.6909 10.7955 39.9829 10.7376 40.1837 10.6069C40.4619 10.4257 40.7975 10.2604 41.1985 10.3046C41.429 10.3301 41.6628 10.4186 41.8686 10.5955C42.4122 11.0627 42.3994 11.8347 42.0058 12.3474C41.8609 12.5362 41.5921 12.8072 41.1679 13.2095C40.3845 13.9523 39.0118 15.1914 37.0466 16.9303C36.1845 17.703 35.4461 18.3957 34.8327 19.0052C34.9048 19.0163 34.9786 19.0282 35.054 19.0411C35.3723 19.0953 35.6251 19.1527 36.1143 19.2737C36.2814 19.315 36.3225 19.3251 36.3978 19.3433C37.0724 19.5061 37.4556 19.5563 37.8492 19.5275C38.3302 19.4923 38.8244 19.3224 39.4112 18.9389C39.4803 18.8937 39.5836 18.8008 39.7203 18.6478C39.8545 18.4977 40.0122 18.2996 40.1906 18.0539C40.5471 17.5626 40.9798 16.8895 41.4633 16.0487C41.6734 15.6833 41.9461 15.1663 42.1355 14.7801C42.3774 14.287 42.8788 13.3212 43.3375 12.4396L43.4535 12.2167C43.8671 11.4218 44.2201 10.7436 44.2888 10.5941C44.452 10.2394 44.7322 10.0319 45.0467 9.9521C45.3546 9.87396 45.6854 9.91969 45.9677 10.046C46.2498 10.1723 46.5027 10.3878 46.6398 10.6724C46.7806 10.9648 46.79 11.3125 46.6089 11.6667C45.7371 13.372 45.0284 14.7371 44.4519 15.8477C44.307 16.1268 44.1629 16.4079 44.0185 16.6897C43.7543 17.205 43.4891 17.7224 43.2162 18.2333C43.1117 18.4289 43.0243 18.5928 42.964 18.7327C42.9011 18.879 42.8845 18.9632 42.8879 19.0068C42.8916 19.0543 42.9015 19.0787 42.9163 19.1001C42.9345 19.1264 42.9715 19.164 43.0556 19.218C43.1245 19.2623 43.2639 19.3042 43.4754 19.3237C43.6792 19.3425 43.9239 19.3382 44.1806 19.3113C44.7007 19.2569 45.2299 19.1144 45.5461 18.9203C46.223 18.5048 46.5513 18.0411 47.178 16.8273C47.4516 16.2974 48.0889 15.8457 48.7754 16.1621C49.0962 16.3099 49.3143 16.5596 49.4052 16.8596C49.4954 17.1575 49.4545 17.4859 49.2954 17.7861C49.251 17.8699 49.2078 17.9517 49.1655 18.0317L49.1511 18.0589C48.4097 19.4617 47.9588 20.3148 46.8273 21.0094C46.1337 21.4352 45.1797 21.7021 44.251 21.7672C43.3268 21.8319 42.3842 21.6996 41.7318 21.2804C41.4855 21.1221 41.2695 20.9387 41.0879 20.7318C40.9749 20.8312 40.8628 20.9178 40.751 20.9908C39.8359 21.589 38.9454 21.9048 38.0281 21.972C37.3132 22.0244 36.7011 21.9378 35.8233 21.726C35.7304 21.7036 35.6388 21.6808 35.548 21.6583C35.2423 21.5825 34.9457 21.509 34.6425 21.4573C33.7169 21.2995 33.3376 21.3305 32.8418 21.4956C32.8066 21.5073 32.7049 21.543 32.592 21.5827L32.5723 21.5897C32.4541 21.6312 32.3283 21.6753 32.2682 21.6955C31.167 22.0648 30.219 20.8371 30.8527 19.8643C31.5766 18.7532 33.0952 17.181 35.415 15.1019L35.416 15.101C36.3557 14.2696 37.155 13.5567 37.8167 12.9601C37.7394 12.9416 37.6601 12.922 37.5783 12.9012C37.262 12.8207 36.9547 12.7361 36.6499 12.6522C36.2179 12.5333 35.791 12.4157 35.3502 12.3133C34.5709 12.1323 34.1098 12.1982 33.7993 12.3838C33.6248 12.4881 33.4774 12.6703 33.34 12.901C32.9742 13.5151 32.6701 14.1854 32.3391 14.818C32.0188 15.4302 31.6539 16.1265 31.443 16.5252C30.7274 17.8774 30.0522 18.9139 29.3424 19.6223C28.6661 20.2973 27.9805 20.8464 27.2619 21.2144C26.2081 21.7539 25.1201 21.8708 24.1253 21.3226C23.4161 20.9318 22.9614 20.2985 22.8089 19.5124C22.7734 19.5478 22.7364 19.5847 22.6975 19.6234C21.6481 20.6682 20.5472 21.4364 19.3515 21.8295C17.648 22.3896 15.8142 21.98 14.5285 20.7386C12.9393 21.3994 11.3533 21.759 10.0911 21.759C8.99058 21.759 7.85929 21.2112 7.37714 20.167C6.90846 19.152 7.14005 17.8567 7.71024 16.7544C8.022 16.1517 8.19971 15.8203 8.7294 14.8438C8.83158 14.6555 8.92157 14.4758 9.02205 14.2752C9.1011 14.1174 9.18664 13.9466 9.28972 13.7485C9.36882 13.5964 9.3968 13.281 9.31786 12.9524C9.24005 12.6284 9.07885 12.3749 8.86758 12.2755C8.4966 12.1411 8.18851 12.1366 7.90132 12.2542C7.60646 12.375 7.30367 12.6364 6.97315 13.0946L2.77683 21.1026C2.59412 21.4512 2.3168 21.658 2.0086 21.7352C1.70571 21.8111 1.38974 21.7579 1.1259 21.6203C0.862053 21.4827 0.637471 21.2541 0.526107 20.9624C0.412796 20.6655 0.423292 20.3196 0.604207 19.97L10.3647 1.12607ZM47.0492 5.76606L47.0833 5.76511C47.5694 5.78856 47.9693 5.91918 48.2525 6.17014C48.5403 6.42522 48.68 6.78019 48.6891 7.19212C48.6977 7.60367 48.5749 7.96945 48.3166 8.23528C48.0586 8.5009 47.6887 8.64288 47.2493 8.65326C46.7856 8.6644 46.382 8.54606 46.0952 8.28116C45.8057 8.01375 45.667 7.6264 45.6773 7.1668C45.6872 6.73515 45.8463 6.39601 46.1073 6.15787C46.3637 5.92392 46.7016 5.8024 47.0492 5.76606ZM18.5867 12.2755C19.3066 11.8583 20.4055 11.593 20.5423 12.2542C20.661 12.8282 20.2795 13.5141 19.8073 14.1851C18.6142 15.8808 17.1721 16.9499 15.4795 17.9596C15.2995 16.6897 16.0199 14.9515 16.9716 13.7485C17.3399 13.283 17.9651 12.6358 18.5867 12.2755Z" fill="#1446E7"/>
</svg>
