<svg width="49" height="33" viewBox="0 0 49 33" fill="none" xmlns="http://www.w3.org/2000/svg">
<path fill-rule="evenodd" clip-rule="evenodd" d="M8.60597 25.1168C8.17937 24.8467 7.6427 24.9407 7.35861 25.3475C7.07497 25.7536 7.17942 26.3094 7.58947 26.5883L7.59578 26.5923C11.6982 29.1057 16.9665 31.6707 24.7735 31.6707C31.7613 31.6707 36.083 29.7937 41.2139 26.6686C41.6251 26.4181 41.7824 25.8735 41.5245 25.4467C41.2703 25.026 40.6917 24.8828 40.2859 25.141C34.7382 28.6707 29.9549 29.9899 24.7735 29.9899C19.5886 29.9899 14.3439 28.7498 8.60597 25.1168Z" fill="#8A9AA3"/>
<path d="M7.35861 25.3475L7.05731 25.1371L7.05731 25.1371L7.35861 25.3475ZM8.60597 25.1168L8.80257 24.8063L8.60597 25.1168ZM7.58947 26.5883L7.38276 26.8922L7.3901 26.897L7.58947 26.5883ZM7.59578 26.5923L7.39635 26.9011L7.4038 26.9057L7.59578 26.5923ZM41.2139 26.6686L41.0227 26.3547L41.0227 26.3547L41.2139 26.6686ZM41.5245 25.4467L41.21 25.6368L41.21 25.6368L41.5245 25.4467ZM40.2859 25.141L40.0886 24.8309L40.0886 24.8309L40.2859 25.141ZM7.65991 25.5579C7.82444 25.3223 8.1382 25.2556 8.40938 25.4273L8.80257 24.8063C8.22053 24.4378 7.46096 24.5591 7.05731 25.1371L7.65991 25.5579ZM7.79613 26.2844C7.55393 26.1197 7.49451 25.7947 7.65991 25.5579L7.05731 25.1371C6.65543 25.7125 6.80492 26.4992 7.38282 26.8922L7.79613 26.2844ZM7.79516 26.2836L7.78885 26.2796L7.3901 26.897L7.39641 26.9011L7.79516 26.2836ZM24.7735 31.3032C17.0588 31.3032 11.8577 28.7724 7.78777 26.279L7.4038 26.9057C11.5386 29.4389 16.8741 32.0382 24.7735 32.0382V31.3032ZM41.0227 26.3547C35.9276 29.4581 31.6722 31.3032 24.7735 31.3032V32.0382C31.8504 32.0382 36.2384 30.1293 41.4051 26.9824L41.0227 26.3547ZM41.21 25.6368C41.3565 25.8792 41.2723 26.2027 41.0227 26.3547L41.4051 26.9824C41.978 26.6335 42.2084 25.8678 41.8391 25.2567L41.21 25.6368ZM40.4832 25.451C40.7079 25.308 41.0581 25.3854 41.21 25.6368L41.8391 25.2567C41.4825 24.6666 40.6755 24.4575 40.0886 24.8309L40.4832 25.451ZM24.7735 30.3574C30.0307 30.3574 34.8816 29.015 40.4832 25.451L40.0886 24.8309C34.5947 28.3264 29.8792 29.6224 24.7735 29.6224V30.3574ZM8.40938 25.4273C14.2079 29.0987 19.5211 30.3574 24.7735 30.3574V29.6224C19.6561 29.6224 14.4799 28.401 8.80257 24.8063L8.40938 25.4273Z" fill="#8A9AA3"/>
<path fill-rule="evenodd" clip-rule="evenodd" d="M9.91237 1.126C10.2234 0.525034 10.9626 0.290026 11.5634 0.601285C12.1642 0.912512 12.3989 1.65195 12.0879 2.25286L8.20924 9.73117C8.5716 9.76502 8.94056 9.85257 9.31369 9.99383L9.32495 9.99844C10.563 10.5456 11.3126 11.3636 11.5333 12.3925C11.6974 13.1578 11.5428 13.9113 11.2181 14.5356C10.935 15.0797 10.6432 15.6189 10.3524 16.1562L10.3231 16.2104C10.0223 16.7662 9.72287 17.3202 9.43366 17.8793C9.32163 18.0958 9.19343 18.4994 9.21836 18.8305C9.23055 18.9922 9.27726 19.1126 9.35423 19.1919C9.42751 19.2674 9.55695 19.3352 9.79943 19.3352C10.6509 19.3352 11.6728 19.0608 12.9014 18.569C12.8914 18.5159 12.8824 18.4624 12.8744 18.4086C12.7552 17.6107 12.8509 16.7722 13.1096 15.9068C13.4726 14.692 14.0974 13.5805 14.8472 12.4648C16.1139 10.5801 18.3785 9.45739 20.4611 9.92256C21.1986 10.0873 21.7721 10.5181 22.0614 11.1716C22.2898 11.6875 22.3053 12.2492 22.1881 12.8269C22.0336 13.5887 21.6272 14.4236 21.1958 15.0367C19.9136 16.8588 18.312 18.3435 16.5193 19.4703C17.023 19.6914 17.5466 19.6924 18.1344 19.4991C18.8967 19.2485 19.7207 18.6772 20.5171 17.8843C21.0224 17.3813 21.2153 17.1874 21.4605 16.9333C21.81 16.5713 22.1021 16.2507 22.3807 15.9201C23.0502 15.1259 23.6773 14.228 24.4087 12.988C25.42 11.2734 27.5728 7.26023 30.6547 1.14949C30.8331 0.795738 31.1129 0.585492 31.4253 0.504341C31.732 0.424648 32.0555 0.472796 32.3285 0.60522C32.6014 0.737599 32.8385 0.961387 32.9616 1.25155C33.0872 1.5475 33.0867 1.89574 32.9093 2.25017L32.9078 2.25314L24.801 17.8632C24.5566 18.3377 24.6257 18.7836 24.6816 18.9518C24.7118 19.0429 24.7359 19.081 24.7536 19.1017C24.7708 19.1218 24.7943 19.1404 24.855 19.1739C25.0007 19.2542 25.2728 19.2472 25.7001 19.0273C26.1133 18.8146 26.6127 18.4315 27.1599 17.8854C27.644 17.4023 28.2018 16.5554 28.8256 15.3768C29.0229 15.0039 29.3808 14.3209 29.7012 13.7086C29.8128 13.4952 29.92 13.2904 30.0142 13.1102C30.1901 12.774 30.3209 12.524 30.3516 12.4659C30.8253 11.5707 31.3279 10.7345 32.0905 10.2787C33.0157 9.72582 34.1339 9.61877 35.4519 9.92485C35.8606 10.0198 36.2662 10.1358 36.6651 10.2499C36.8076 10.2906 36.9493 10.3311 37.0899 10.3703C37.6291 10.5207 38.1612 10.6545 38.7054 10.7252C39.2386 10.7945 39.5306 10.7366 39.7314 10.6059C40.0096 10.4247 40.3452 10.2595 40.7462 10.3037C40.9767 10.3291 41.2105 10.4176 41.4163 10.5945C41.9599 11.0616 41.9471 11.8336 41.5535 12.3463C41.4086 12.535 41.1398 12.806 40.7156 13.2082C39.9322 13.951 38.5595 15.19 36.5943 16.9287C35.7322 17.7013 34.9938 18.3939 34.3804 19.0034C34.4525 19.0144 34.5263 19.0264 34.6017 19.0392C34.92 19.0935 35.1728 19.1509 35.662 19.2719C35.8291 19.3131 35.8702 19.3233 35.9454 19.3414C36.6201 19.5042 37.0033 19.5545 37.3969 19.5256C37.8779 19.4904 38.3721 19.3206 38.9589 18.9371C39.028 18.8919 39.1313 18.799 39.268 18.6461C39.4022 18.496 39.5599 18.2978 39.7383 18.0521C40.0948 17.5609 40.5275 16.8879 41.011 16.0472C41.2211 15.6818 41.4938 15.1649 41.6832 14.7787C41.9251 14.2857 42.4265 13.32 42.8852 12.4385L43.0012 12.2156C43.4148 11.4208 43.7678 10.7426 43.8365 10.5931C43.9997 10.2384 44.2799 10.031 44.5944 9.95117C44.9023 9.87304 45.2331 9.91876 45.5154 10.0451C45.7975 10.1713 46.0504 10.3868 46.1875 10.6714C46.3283 10.9637 46.3377 11.3114 46.1566 11.6656C45.2848 13.3707 44.5761 14.7357 43.9996 15.8462C43.8547 16.1253 43.7106 16.4064 43.5662 16.6881C43.302 17.2034 43.0368 17.7207 42.7638 18.2315C42.6594 18.4271 42.572 18.5911 42.5117 18.731C42.4488 18.8772 42.4322 18.9614 42.4356 19.0049C42.4393 19.0525 42.4492 19.0769 42.464 19.0983C42.4822 19.1245 42.5192 19.1621 42.6033 19.2162C42.6722 19.2604 42.8116 19.3024 43.0231 19.3219C43.2269 19.3407 43.4716 19.3363 43.7283 19.3095C44.2484 19.255 44.7776 19.1125 45.0938 18.9185C45.7707 18.503 46.099 18.0394 46.7257 16.8257C46.9993 16.2959 47.6366 15.8442 48.3231 16.1605C48.6439 16.3083 48.862 16.558 48.9529 16.858C49.0431 17.1559 49.0022 17.4842 48.8431 17.7844C48.7987 17.8682 48.7555 17.95 48.7132 18.0299L48.6988 18.0572C47.9574 19.4599 47.5065 20.3129 46.375 21.0074C45.6814 21.4331 44.7274 21.7 43.7987 21.7651C42.8745 21.8298 41.9319 21.6975 41.2795 21.2783C41.0332 21.1201 40.8172 20.9367 40.6356 20.7298C40.5226 20.8292 40.4105 20.9158 40.2987 20.9888C39.3836 21.5869 38.4931 21.9027 37.5758 21.9699C36.8609 22.0223 36.2488 21.9357 35.371 21.7239C35.2781 21.7015 35.1865 21.6788 35.0957 21.6563C34.79 21.5804 34.4934 21.5069 34.1902 21.4552C33.2646 21.2975 32.8853 21.3284 32.3895 21.4935C32.3543 21.5053 32.2526 21.541 32.1397 21.5807L32.12 21.5876C32.0018 21.6291 31.876 21.6732 31.8159 21.6934C30.7147 22.0626 29.7667 20.8351 30.4004 19.8624C31.1243 18.7514 32.6429 17.1794 34.9627 15.1005L34.9637 15.0996C35.9033 14.2682 36.7027 13.5554 37.3644 12.9589C37.2871 12.9404 37.2078 12.9207 37.126 12.8999C36.8097 12.8195 36.5024 12.7349 36.1976 12.651C35.7656 12.5321 35.3387 12.4145 34.8979 12.3122C34.1186 12.1312 33.6575 12.1971 33.347 12.3827C33.1725 12.4869 33.0251 12.6691 32.8877 12.8998C32.5219 13.5138 32.2178 14.184 31.8868 14.8165C31.5665 15.4287 31.2016 16.125 30.9907 16.5236C30.2751 17.8757 29.5999 18.9121 28.8901 19.6205C28.2138 20.2953 27.5282 20.8444 26.8096 21.2123C25.7558 21.7518 24.6678 21.8687 23.673 21.3206C22.9638 20.9298 22.5091 20.2966 22.3566 19.5106C22.3211 19.5459 22.2841 19.5828 22.2452 19.6215C21.1958 20.6663 20.0949 21.4344 18.8992 21.8275C17.1956 22.3875 15.3619 21.9779 14.0762 20.7366C12.487 21.3974 10.901 21.7569 9.63881 21.7569C8.53828 21.7569 7.40699 21.2092 6.92484 20.1651C6.45616 19.1502 6.68775 17.855 7.25794 16.7528C7.5697 16.1502 7.74741 15.8188 8.2771 14.8424C8.37928 14.6541 8.46927 14.4745 8.56975 14.2739C8.6488 14.1161 8.73434 13.9453 8.83742 13.7472C8.91652 13.5951 8.9445 13.2798 8.86556 12.9512C8.78775 12.6273 8.62655 12.3737 8.41528 12.2744C8.0443 12.1399 7.73621 12.1355 7.44902 12.2531C7.15416 12.3738 6.85137 12.6352 6.52085 13.0933L2.32453 21.1005C2.14182 21.4492 1.8645 21.6559 1.5563 21.7331C1.25341 21.809 0.93744 21.7558 0.673597 21.6182C0.409752 21.4807 0.18517 21.2521 0.0738061 20.9603C-0.0395049 20.6635 -0.0290091 20.3177 0.151906 19.9681L9.91237 1.126ZM46.5969 5.76554L46.631 5.76459C47.1171 5.78804 47.517 5.91864 47.8002 6.16958C48.088 6.42463 48.2277 6.77957 48.2368 7.19146C48.2454 7.60297 48.1226 7.96871 47.8643 8.23452C47.6063 8.50011 47.2364 8.64207 46.797 8.65246C46.3333 8.6636 45.9297 8.54527 45.6429 8.28039C45.3534 8.01301 45.2146 7.6257 45.225 7.16614C45.2348 6.73453 45.394 6.39543 45.655 6.15731C45.9114 5.92338 46.2493 5.80188 46.5969 5.76554ZM18.1344 12.2744C18.8543 11.8572 19.9532 11.5919 20.09 12.2531C20.2087 12.8269 19.8272 13.5128 19.355 14.1838C18.1619 15.8793 16.7198 16.9483 15.0272 17.9579C14.8472 16.6881 15.5676 14.9501 16.5193 13.7472C16.8876 13.2817 17.5128 12.6346 18.1344 12.2744Z" fill="#8A9AA3"/>
</svg>
