<svg width="72" height="20" viewBox="0 0 72 20" fill="none" xmlns="http://www.w3.org/2000/svg">
<path d="M0 16.6719H7.90871V14.0831H2.86259V4.20709H0V16.6719ZM11.9128 16.6719V8.08641H9.0505V16.6719H11.9128ZM10.4819 6.91441C11.4799 6.91441 12.1012 6.2551 12.1012 5.43071C12.0827 4.58836 11.4799 3.94775 10.5009 3.94775C9.52172 3.94775 8.88142 4.58861 8.88142 5.43071C8.88142 6.2551 9.50271 6.91441 10.4632 6.91441H10.4819V6.91441ZM13.2417 16.6719H16.1041V11.8772C16.1041 11.6206 16.1226 11.364 16.1983 11.1812C16.4049 10.6685 16.8759 10.1374 17.6668 10.1374C18.7028 10.1374 19.1172 10.9249 19.1172 12.0784V16.6717H21.9791V11.749C21.9791 9.11178 20.5669 7.88467 18.6835 7.88467C17.1395 7.88467 16.4615 8.74522 16.0848 9.33147H16.1041V8.08641H13.2417C13.2795 8.8921 13.2417 16.6719 13.2417 16.6719V16.6719ZM26.0172 4.20709H23.1549V16.6719H26.0172V13.8883L26.7325 12.9904L28.9736 16.6719H32.4947L28.729 11.3423L32.024 7.71661H28.5784C28.5784 7.71661 26.2246 10.9603 26.0172 11.3453V4.20709Z" fill="#8A9AA3"/>
<path d="M40.149 13.0906C40.1868 12.8702 40.2433 12.4473 40.2433 11.969C40.2433 9.74966 39.1133 7.49643 36.1381 7.49643C32.9556 7.49643 31.4867 10.0058 31.4867 12.2817C31.4867 15.0965 33.2758 16.8542 36.4015 16.8542C37.6446 16.8542 38.7929 16.6717 39.7348 16.2869L39.3581 14.4023C38.5858 14.6576 37.7949 14.7855 36.8159 14.7855C35.4791 14.7855 34.3118 14.2382 34.2175 13.0722L40.149 13.0901V13.0906V13.0906ZM34.1987 11.16C34.274 10.4274 34.764 9.34644 35.9878 9.34644C37.2869 9.34644 37.5886 10.5005 37.5886 11.16H34.199H34.1987ZM47.3084 4.2071V8.52205H47.2706C46.8562 7.9181 45.99 7.51513 44.842 7.51513C42.6384 7.51513 40.699 9.27313 40.7175 12.2764C40.7175 15.0603 42.4691 16.8734 44.6531 16.8734C45.8397 16.8734 46.9692 16.3602 47.5345 15.3713H47.5907L47.704 16.6719H50.246C50.2085 16.0675 50.1705 15.0237 50.1705 13.998V4.20685H47.3081L47.3084 4.2071ZM47.3084 12.6979C47.3084 12.9173 47.2896 13.1375 47.2516 13.32C47.0828 14.108 46.4047 14.6568 45.5761 14.6568C44.39 14.6568 43.6176 13.7048 43.6176 12.2031C43.6176 10.7932 44.2772 9.65764 45.5951 9.65764C46.48 9.65764 47.1013 10.2618 47.2708 11.0124C47.3084 11.1778 47.3084 11.361 47.3084 11.5256V12.6976V12.6979Z" fill="#8A9AA3"/>
<path fill-rule="evenodd" clip-rule="evenodd" d="M54.4498 0.745461C53.6764 0.745461 53.0491 1.35565 53.0491 2.10747V18.3973C53.0491 19.1491 53.6764 19.7588 54.4498 19.7588H70.5994C71.373 19.7588 72 19.1491 72 18.397V2.10747C72 1.35565 71.373 0.745461 70.5994 0.745461H54.4498ZM58.7938 8.07595V16.6615H55.9315V8.07595H58.7938ZM58.9824 5.42074C58.9824 6.24463 58.3611 6.90395 57.3632 6.90395H57.3444C56.3837 6.90395 55.7627 6.24463 55.7627 5.42074C55.7627 4.57815 56.4025 3.93729 57.3822 3.93729C58.3611 3.93729 58.9637 4.57815 58.9824 5.42074ZM63.2402 16.6615H60.3781C60.3783 16.6109 60.4155 8.879 60.3783 8.07619H63.2404V9.2916C63.6208 8.70668 64.3018 7.87471 65.8201 7.87471C67.7032 7.87471 69.1152 9.10182 69.1152 11.7388V16.6615H66.2531V12.069C66.2531 10.9147 65.8386 10.1274 64.8031 10.1274C64.0123 10.1274 63.5413 10.6583 63.3345 11.1713C63.2589 11.3543 63.2402 11.6111 63.2402 11.8675V16.6615Z" fill="#8A9AA3"/>
</svg>
