<svg width="58" height="11" viewBox="0 0 58 11" fill="none" xmlns="http://www.w3.org/2000/svg">
<path d="M20.6629 10.527C18.5619 10.527 16.6115 9.89695 15.3097 8.72845C14.3261 7.84564 13.8535 6.64651 13.8535 5.41232C13.8535 4.19316 14.3465 2.98575 15.3096 2.1076C16.5186 1.00572 18.6532 0.315659 20.6629 0.315659C22.8869 0.315659 24.667 0.875859 26.0278 2.11063C26.996 2.98925 27.464 4.19129 27.464 5.41244C27.464 6.59608 26.9673 7.85659 26.0278 8.72845C24.7606 9.90452 22.7693 10.527 20.6629 10.527V9.18022C21.7781 9.18022 22.8125 8.79519 23.535 8.07636C24.2524 7.36242 24.5866 6.48485 24.5866 5.41232C24.5866 4.38486 24.2261 3.42425 23.535 2.74292C22.8222 2.04087 21.763 1.64581 20.6629 1.64581C19.5594 1.64581 18.4996 2.03679 17.7862 2.74292C17.0988 3.42402 16.7373 4.38742 16.7373 5.41232C16.7373 6.43408 17.103 7.3969 17.7862 8.07648C18.5001 8.78669 19.5562 9.18022 20.6629 9.18022V10.527ZM5.30642 0.32055C4.18252 0.32055 2.90571 0.530771 1.82083 1.01527C0.819571 1.46203 2.37296e-07 2.18459 2.37296e-07 3.38244C-0.000465626 4.46126 0.685169 5.09309 0.666534 5.07562C0.958165 5.34407 1.42764 5.8012 2.65507 6.06965C3.20363 6.18961 4.37644 6.37386 5.54436 6.49592C6.70366 6.61821 7.84456 6.73444 8.30926 6.85207C8.67845 6.94606 9.29863 7.07406 9.29863 7.76982C9.29863 8.46279 8.64526 8.6743 8.53171 8.72018C8.41827 8.76502 7.63445 9.12467 6.22545 9.12467C5.18518 9.12467 3.93457 8.81184 3.47872 8.64879C2.95323 8.46175 2.40199 8.21437 1.8878 7.58627C1.75992 7.43056 1.5582 7.00231 1.5582 6.57826H0.283012V10.1514H1.7004V9.66868C1.7004 9.61371 1.76912 9.38765 2.00706 9.49515C2.30311 9.62967 3.17218 9.97569 4.08085 10.1654C4.82588 10.3212 5.3063 10.4329 6.23256 10.4329C7.74382 10.4329 8.5557 10.1867 9.11695 10.0265C9.6457 9.87506 10.2991 9.60323 10.8298 9.17999C11.1172 8.95114 11.7476 8.3645 11.7476 7.29965C11.7476 6.27755 11.199 5.64316 11.006 5.45017C10.7432 5.18719 10.4221 4.98338 10.0875 4.82626C9.79594 4.68907 9.3359 4.52427 8.95949 4.43214C8.2289 4.25279 6.57694 4.0315 5.78696 3.94881C4.95853 3.86228 3.52146 3.74325 2.94752 3.56564C2.77352 3.51171 2.41876 3.34272 2.41876 2.9309C2.41876 2.63799 2.581 2.38968 2.90163 2.18901C3.41059 1.87013 4.43863 1.6719 5.51023 1.6719C6.77715 1.66724 7.85003 1.9569 8.53252 2.26204C8.76464 2.36569 9.03624 2.51453 9.25193 2.69063C9.49535 2.88909 9.83706 3.30149 9.96063 3.87672H11.1055V0.766381H9.82716V1.12789C9.82716 1.24459 9.70661 1.39623 9.47869 1.27091C8.90661 0.970779 7.28937 0.323229 5.30642 0.32055ZM33.3204 0.885759L39.5562 6.51339L39.4922 2.72441C39.4859 2.22756 39.3943 2.02014 38.857 2.02014H37.6845V0.886691H43.0163V2.02014H41.8726C41.3245 2.02014 41.2899 2.19542 41.2833 2.72441L41.38 9.96427H39.554L32.3716 3.55399L32.3731 8.10338C32.3794 8.59789 32.4026 8.83083 32.9121 8.83083H34.1926V9.96381H28.9563V8.83094H30.1804C30.6376 8.83094 30.6195 8.39501 30.6195 8.07764V2.7675C30.6195 2.42474 30.5714 2.02095 29.8535 2.02095H28.8602V0.885759H33.3204ZM49.109 8.82873C49.1591 8.82873 49.3815 8.82232 49.4246 8.80916C49.4788 8.79279 49.5288 8.76483 49.5712 8.72722C49.6135 8.68962 49.6472 8.64327 49.6699 8.59137C49.6862 8.55294 49.6944 8.3829 49.6944 8.34598L49.6953 6.55473C49.6953 6.51164 49.6921 6.49301 49.619 6.39704C49.5386 6.29222 46.3527 2.68178 46.2069 2.5228C46.0258 2.32539 45.7078 2.02025 45.2247 2.02025H44.1168V0.886341H50.3695V2.01886H49.6157C49.4414 2.01886 49.3255 2.18424 49.4745 2.36802C49.4745 2.36802 51.5782 4.8845 51.5981 4.91082C51.6177 4.93761 51.6344 4.94401 51.6612 4.91955C51.6876 4.89451 53.8177 2.39108 53.8345 2.37128C53.9358 2.24992 53.8671 2.02014 53.6487 2.02014H52.8755V0.886341H58V2.02014H56.8551C56.4398 2.02014 56.2708 2.097 55.9584 2.45024C55.8155 2.6119 52.5955 6.28721 52.5079 6.38679C52.4621 6.43885 52.466 6.51141 52.466 6.5545V8.34551C52.466 8.38185 52.4742 8.55212 52.4905 8.59032C52.5131 8.64231 52.5469 8.68873 52.5893 8.72634C52.6317 8.76395 52.6819 8.79186 52.7362 8.80812C52.7793 8.82139 52.9987 8.82791 53.0487 8.82791H54.2197V9.96159H47.9993V8.8278L49.109 8.82873Z" fill="#8A9AA3"/>
</svg>
